<svg width="300" height="300" viewBox="0 0 300 300" fill="none" xmlns="http://www.w3.org/2000/svg">
<rect width="300" height="300" fill="#FF706E"/>
<path d="M150.64 19C154.45 21.6636 158.179 24.4079 162.15 26.8294C176.66 36.0309 191.25 45.071 205.841 54.1918C206.814 54.8375 207.949 55.2411 209.894 56.2096C209.894 50.9632 209.894 46.4431 209.894 41.5195C219.783 41.5195 228.862 41.5195 238.508 41.5195C238.508 52.416 238.508 63.2319 238.508 74.3705C243.371 77.5184 248.073 80.5856 252.774 83.5721C260.069 88.1728 267.365 92.6121 274.579 97.2936C275.714 98.0201 276.848 99.7151 276.929 101.007C277.092 111.177 277.01 121.427 277.01 132.808C234.374 106.172 192.385 80.0206 150.154 53.6268C107.436 80.2627 64.9611 106.818 22 133.696C22 121.992 22 111.015 22 99.7151C28.8089 95.4372 35.6989 90.9978 42.5889 86.7199C67.4739 71.1419 92.3589 55.4832 117.325 39.9052C127.214 33.6901 137.184 27.6365 147.073 21.5022C148.046 20.8564 148.857 19.9686 149.748 19.1614C150.073 19 150.397 19 150.64 19Z" fill="white"/>
<path d="M203.576 244.274C198.875 234.75 194.417 225.79 190.039 216.912C163.371 216.912 137.189 216.912 110.278 216.912C105.819 225.871 101.199 235.153 96.5788 244.355C85.798 244.355 75.3414 244.355 63.9121 244.355C92.769 185.513 121.302 127.156 150.24 68.2344C179.015 127.156 207.467 185.433 236.243 244.274C224.732 244.274 214.195 244.274 203.576 244.274ZM150.807 136.358C150.402 136.358 149.996 136.439 149.591 136.439C141.242 153.469 132.893 170.5 124.301 188.177C141.972 188.177 158.589 188.177 176.178 188.177C167.424 170.42 159.075 153.389 150.807 136.358Z" fill="white"/>
<path d="M239.647 252.427C244.267 262.032 248.726 271.234 253.427 281C184.284 281 115.79 281 46.7275 281C51.51 271.315 56.1303 261.871 60.7507 252.427C120.572 252.427 179.907 252.427 239.647 252.427Z" fill="white"/>
</svg>
