<svg width="817" height="620" viewBox="0 0 817 620" fill="none" xmlns="http://www.w3.org/2000/svg">
<g opacity="0.14">
<path d="M41.2536 265.01L40.984 265.145L41.2536 265.28V265.01Z" fill="white"/>
<path d="M31.1416 247.35L30.7371 247.08V247.619L31.1416 247.35Z" fill="white"/>
<path d="M41.3872 229.15L40.7131 229.555L41.3872 229.959V229.15Z" fill="white"/>
<path d="M10.3804 247.215L10.2456 247.35H10.3804V247.215Z" fill="white"/>
<path d="M31.4115 211.624L30.7374 211.219V212.028L31.4115 211.624Z" fill="white"/>
<path d="M41.5221 193.289L40.5784 193.829L41.5221 194.368V193.289Z" fill="white"/>
<path d="M0.134781 229.554L0 229.42V229.689L0.134781 229.554Z" fill="white"/>
<path d="M10.5153 211.489L10.1109 211.624L10.5153 211.894V211.489Z" fill="white"/>
<path d="M31.5464 176.033L30.6027 175.494V176.573L31.5464 176.033Z" fill="white"/>
<path d="M41.5221 157.564L40.4436 158.238L41.5221 158.777V157.564Z" fill="white"/>
<path d="M0.26973 193.828L0.000167406 193.693V193.963L0.26973 193.828Z" fill="white"/>
<path d="M10.5153 175.763L10.1109 176.033L10.5153 176.303V175.763Z" fill="white"/>
<path d="M31.5464 140.442L30.6027 139.903V140.846L31.5464 140.442Z" fill="white"/>
<path d="M41.5221 121.972L40.5784 122.512L41.5221 123.186V121.972Z" fill="white"/>
<path d="M0.134781 158.237L0 158.103V158.237H0.134781Z" fill="white"/>
<path d="M10.3804 140.173L10.1108 140.442L10.3804 140.577V140.173Z" fill="white"/>
<path d="M31.2765 104.716L30.7373 104.447V105.121L31.2765 104.716Z" fill="white"/>
<path d="M41.3872 86.5165L40.848 86.921L41.3872 87.1906V86.5165Z" fill="white"/>
<path d="M10.3804 104.716H10.2456L10.3804 104.851V104.716Z" fill="white"/>
<path d="M265.853 443.37H265.718L265.853 443.505V443.37Z" fill="white"/>
<path d="M286.614 443.369L286.21 443.099V443.639L286.614 443.369Z" fill="white"/>
<path d="M256.012 425.574L255.204 425.17V425.979L256.012 425.574Z" fill="white"/>
<path d="M297.265 424.496L295.512 425.575L297.265 426.653V424.496Z" fill="white"/>
<path d="M317.353 461.165H317.218V461.3L317.353 461.165Z" fill="white"/>
<path d="M266.528 406.565L264.371 407.779L266.528 408.992V406.565Z" fill="white"/>
<path d="M288.232 407.779L285.401 406.161V409.397L288.232 407.779Z" fill="white"/>
<path d="M318.836 425.574L316.409 424.226V426.922L318.836 425.574Z" fill="white"/>
<path d="M328.003 442.561L326.52 443.37L328.003 444.314V442.561Z" fill="white"/>
<path d="M234.981 425.439L234.712 425.574L234.981 425.708V425.439Z" fill="white"/>
<path d="M235.655 388.635L233.498 389.983L235.655 391.197V388.635Z" fill="white"/>
<path d="M257.631 389.983L254.395 388.096V391.736L257.631 389.983Z" fill="white"/>
<path d="M298.21 387.152L293.356 389.983L298.21 392.679V387.152Z" fill="white"/>
<path d="M320.992 389.984L315.33 386.613V393.219L320.992 389.984Z" fill="white"/>
<path d="M328.946 405.216L324.632 407.778L328.946 410.205V405.216Z" fill="white"/>
<path d="M349.843 443.37L347.281 441.887V444.852L349.843 443.37Z" fill="white"/>
<path d="M359.01 460.087L357.122 461.165L359.01 462.379V460.087Z" fill="white"/>
<path d="M348.359 479.095L347.955 478.826V479.23L348.359 479.095Z" fill="white"/>
<path d="M225.006 407.779L224.332 407.374V408.183L225.006 407.779Z" fill="white"/>
<path d="M226.487 372.053L223.656 370.435V373.671L226.487 372.053Z" fill="white"/>
<path d="M267.471 369.087L262.214 372.053L267.471 375.154V369.087Z" fill="white"/>
<path d="M290.659 372.053L284.188 368.413V375.828L290.659 372.053Z" fill="white"/>
<path d="M330.295 367.335L322.071 372.053L330.295 376.907V367.335Z" fill="white"/>
<path d="M351.596 407.779L346.338 404.678V410.745L351.596 407.779Z" fill="white"/>
<path d="M359.818 423.013L355.504 425.574L359.818 428.136V423.013Z" fill="white"/>
<path d="M381.119 461.165L377.884 459.413V463.053L381.119 461.165Z" fill="white"/>
<path d="M236.464 351.562L231.746 354.258L236.464 356.954V351.562Z" fill="white"/>
<path d="M259.652 354.258L253.451 350.752V357.763L259.652 354.258Z" fill="white"/>
<path d="M299.556 349.269L290.928 354.257L299.556 359.245V349.269Z" fill="white"/>
<path d="M323.554 354.258L314.117 348.865V359.785L323.554 354.258Z" fill="white"/>
<path d="M354.292 372.053L344.99 366.795V377.445L354.292 372.053Z" fill="white"/>
<path d="M361.033 385.399L353.214 389.983L361.033 394.432V385.399Z" fill="white"/>
<path d="M382.872 425.574L377.075 422.204V428.945L382.872 425.574Z" fill="white"/>
<path d="M391.096 440.268L385.569 443.369L391.096 446.605V440.268Z" fill="white"/>
<path d="M390.287 477.342L387.321 479.095L390.287 480.713V477.342Z" fill="white"/>
<path d="M379.636 496.891L378.692 496.352V497.43L379.636 496.891Z" fill="white"/>
<path d="M193.997 389.983L193.593 389.714V390.118L193.997 389.983Z" fill="white"/>
<path d="M204.648 371.109L202.895 372.053L204.648 373.132V371.109Z" fill="white"/>
<path d="M205.188 334.305L201.548 336.462L205.188 338.619V334.305Z" fill="white"/>
<path d="M227.971 336.462L222.982 333.631V339.294L227.971 336.462Z" fill="white"/>
<path d="M268.55 331.743L260.326 336.461L268.55 341.18V331.743Z" fill="white"/>
<path d="M292.682 336.462L283.245 330.935V341.855L292.682 336.462Z" fill="white"/>
<path d="M331.373 329.856L319.914 336.462L331.373 343.067V329.856Z" fill="white"/>
<path d="M356.179 336.462L344.045 329.452V343.473L356.179 336.462Z" fill="white"/>
<path d="M362.111 347.787L350.922 354.258L362.111 360.864V347.787Z" fill="white"/>
<path d="M385.029 389.983L375.861 384.59V395.241L385.029 389.983Z" fill="white"/>
<path d="M392.04 402.925L383.816 407.779L392.04 412.497V402.925Z" fill="white"/>
<path d="M414.957 443.37L407.273 439.056V447.818L414.957 443.37Z" fill="white"/>
<path d="M422.643 456.852L415.228 461.166L422.643 465.48V456.852Z" fill="white"/>
<path d="M413.206 479.095L408.218 476.129V481.926L413.206 479.095Z" fill="white"/>
<path d="M389.478 514.283L388.804 514.687L389.478 515.091V514.283Z" fill="white"/>
<path d="M195.211 354.258L193.054 353.045V355.471L195.211 354.258Z" fill="white"/>
<path d="M196.289 318.667L192.379 316.375V320.824L196.289 318.667Z" fill="white"/>
<path d="M237.273 314.622L230.263 318.667L237.273 322.576V314.622Z" fill="white"/>
<path d="M261.135 318.667L252.642 313.679V323.52L261.135 318.667Z" fill="white"/>
<path d="M300.366 312.195L289.176 318.666L300.366 325.002V312.195Z" fill="white"/>
<path d="M325.307 318.667L313.173 311.657V325.543L325.307 318.667Z" fill="white"/>
<path d="M362.785 310.982L349.573 318.667L362.785 326.351V310.982Z" fill="white"/>
<path d="M387.187 354.258L374.919 347.112V361.403L387.187 354.258Z" fill="white"/>
<path d="M393.118 365.447L381.524 372.053L393.118 378.794V365.447Z" fill="white"/>
<path d="M416.71 407.779L406.464 401.847V413.711L416.71 407.779Z" fill="white"/>
<path d="M423.451 419.778L413.475 425.575L423.451 431.372V419.778Z" fill="white"/>
<path d="M447.449 461.165L437.338 455.368V467.097L447.449 461.165Z" fill="white"/>
<path d="M421.698 494.195L416.98 496.891L421.698 499.588V494.195Z" fill="white"/>
<path d="M411.453 514.686L409.026 513.338V516.034L411.453 514.686Z" fill="white"/>
<path d="M173.506 353.718L172.428 354.257L173.506 354.931V353.718Z" fill="white"/>
<path d="M205.861 297.636L200.469 300.737L205.861 303.972V297.636Z" fill="white"/>
<path d="M229.184 300.737L222.308 296.827V304.781L229.184 300.737Z" fill="white"/>
<path d="M269.089 294.94L258.978 300.737L269.089 306.668V294.94Z" fill="white"/>
<path d="M294.03 300.736L282.571 294.265V307.342L294.03 300.736Z" fill="white"/>
<path d="M331.913 293.187L318.836 300.736L331.913 308.421V293.187Z" fill="white"/>
<path d="M357.123 300.737L343.642 292.917V308.691L357.123 300.737Z" fill="white"/>
<path d="M388.265 318.667L374.379 310.578V326.756L388.265 318.667Z" fill="white"/>
<path d="M393.793 328.508L380.176 336.462L393.793 344.416V328.508Z" fill="white"/>
<path d="M418.598 372.053L405.521 364.504V379.738L418.598 372.053Z" fill="white"/>
<path d="M424.395 382.568L411.587 389.983L424.395 397.263V382.568Z" fill="white"/>
<path d="M449.065 425.574L436.528 418.294V432.854L449.065 425.574Z" fill="white"/>
<path d="M455.268 435.955L442.326 443.37L455.268 450.919V435.955Z" fill="white"/>
<path d="M454.458 473.164L444.212 479.095L454.458 485.027V473.164Z" fill="white"/>
<path d="M445.561 496.891L438.281 492.712V501.07L445.561 496.891Z" fill="white"/>
<path d="M420.89 531.268L418.733 532.481L420.89 533.695V531.268Z" fill="white"/>
<path d="M410.104 550.412L409.7 550.143V550.547L410.104 550.412Z" fill="white"/>
<path d="M163.799 336.462L162.451 335.654V337.271L163.799 336.462Z" fill="white"/>
<path d="M174.045 317.048L171.348 318.666L174.045 320.149V317.048Z" fill="white"/>
<path d="M174.584 280.649L170.405 282.941L174.584 285.367V280.649Z" fill="white"/>
<path d="M197.369 282.94L191.976 279.84V286.176L197.369 282.94Z" fill="white"/>
<path d="M237.678 278.088L229.319 282.941L237.678 287.93V278.088Z" fill="white"/>
<path d="M262.214 282.94L252.102 277.143V288.737L262.214 282.94Z" fill="white"/>
<path d="M300.771 275.93L288.503 282.94L300.771 290.086V275.93Z" fill="white"/>
<path d="M325.98 282.941L312.903 275.392V290.626L325.98 282.941Z" fill="white"/>
<path d="M363.054 274.986L349.034 282.941L363.054 291.029V274.986Z" fill="white"/>
<path d="M388.4 282.941L374.244 274.852V291.164L388.4 282.941Z" fill="white"/>
<path d="M394.061 292.512L379.636 300.736L394.061 309.095V292.512Z" fill="white"/>
<path d="M419.542 336.462L404.982 328.104V344.821L419.542 336.462Z" fill="white"/>
<path d="M425.069 345.898L410.375 354.257L425.069 362.75V345.898Z" fill="white"/>
<path d="M450.683 389.983L435.719 381.22V398.612L450.683 389.983Z" fill="white"/>
<path d="M456.076 398.881L440.842 407.779L456.076 416.542V398.881Z" fill="white"/>
<path d="M481.96 443.37L466.456 434.337V452.402L481.96 443.37Z" fill="white"/>
<path d="M487.218 452.132L471.31 461.165L487.218 470.332V452.132Z" fill="white"/>
<path d="M480.342 479.095L467.265 471.546V486.51L480.342 479.095Z" fill="white"/>
<path d="M453.245 510.777L446.504 514.687L453.245 518.596V510.777Z" fill="white"/>
<path d="M443.404 532.482L439.36 530.19V534.909L443.404 532.482Z" fill="white"/>
<path d="M420.217 568.073L419.947 568.208L420.217 568.343V568.073Z" fill="white"/>
<path d="M142.498 336.192L141.959 336.462L142.498 336.731V336.192Z" fill="white"/>
<path d="M164.744 300.737L161.913 299.254V302.354L164.744 300.737Z" fill="white"/>
<path d="M165.687 265.145L161.508 262.719V267.572L165.687 265.145Z" fill="white"/>
<path d="M206.4 261.1L199.389 265.145L206.4 269.189V261.1Z" fill="white"/>
<path d="M230.128 265.145L221.905 260.426V269.998L230.128 265.145Z" fill="white"/>
<path d="M269.494 258.675L258.305 265.146L269.494 271.617V258.675Z" fill="white"/>
<path d="M294.568 265.145L282.3 258.135V272.29L294.568 265.145Z" fill="white"/>
<path d="M332.048 257.326L318.566 265.145L332.048 272.964V257.326Z" fill="white"/>
<path d="M357.257 265.145L343.506 257.191V273.099L357.257 265.145Z" fill="white"/>
<path d="M393.928 257.057L379.907 265.146L393.928 273.234V257.057Z" fill="white"/>
<path d="M419.677 300.737L404.982 292.243V309.365L419.677 300.737Z" fill="white"/>
<path d="M425.204 309.904L410.105 318.667L425.204 327.295V309.904Z" fill="white"/>
<path d="M451.358 354.258L435.45 345.09V363.425L451.358 354.258Z" fill="white"/>
<path d="M456.481 362.482L439.899 372.053L456.481 381.625V362.482Z" fill="white"/>
<path d="M483.308 407.779L465.782 397.668V417.89L483.308 407.779Z" fill="white"/>
<path d="M487.758 415.328L469.962 425.574L487.758 435.82V415.328Z" fill="white"/>
<path d="M514.72 461.166L496.385 450.65V471.816L514.72 461.166Z" fill="white"/>
<path d="M486.14 489.611L473.467 496.891L486.14 504.171V489.611Z" fill="white"/>
<path d="M477.782 514.687L468.48 509.294V520.079L477.782 514.687Z" fill="white"/>
<path d="M452.167 548.255L448.527 550.412L452.167 552.434V548.255Z" fill="white"/>
<path d="M441.786 568.208L440.168 567.264V569.152L441.786 568.208Z" fill="white"/>
<path d="M132.522 318.667L131.713 318.128V319.071L132.522 318.667Z" fill="white"/>
<path d="M142.903 299.793L141.016 300.736L142.903 301.815V299.793Z" fill="white"/>
<path d="M174.988 244.114L169.461 247.35L174.988 250.585V244.114Z" fill="white"/>
<path d="M198.312 247.35L191.436 243.305V251.394L198.312 247.35Z" fill="white"/>
<path d="M238.081 241.823L228.509 247.351L238.081 252.878V241.823Z" fill="white"/>
<path d="M262.753 247.35L251.833 241.014V253.687L262.753 247.35Z" fill="white"/>
<path d="M300.771 240.069L288.368 247.349L300.771 254.495V240.069Z" fill="white"/>
<path d="M325.98 247.35L312.903 239.8V254.899L325.98 247.35Z" fill="white"/>
<path d="M362.785 239.8L349.707 247.35L362.785 254.899V239.8Z" fill="white"/>
<path d="M387.59 247.35L374.648 239.8V254.899L387.59 247.35Z" fill="white"/>
<path d="M419.137 265.145L405.251 257.191V273.099L419.137 265.145Z" fill="white"/>
<path d="M424.934 274.583L410.509 282.941L424.934 291.3V274.583Z" fill="white"/>
<path d="M451.223 318.666L435.45 309.499V327.699L451.223 318.666Z" fill="white"/>
<path d="M456.481 327.025L440.034 336.462L456.481 345.899V327.025Z" fill="white"/>
<path d="M483.848 372.052L465.513 361.537V382.703L483.848 372.052Z" fill="white"/>
<path d="M488.298 378.928L469.154 389.983L488.298 400.903V378.928Z" fill="white"/>
<path d="M515.8 425.574L495.847 414.115V437.033L515.8 425.574Z" fill="white"/>
<path d="M519.574 431.506L499.083 443.37L519.574 455.233V431.506Z" fill="white"/>
<path d="M518.899 468.445L500.565 479.096L518.899 489.611V468.445Z" fill="white"/>
<path d="M512.563 496.891L497.464 488.128V505.654L512.563 496.891Z" fill="white"/>
<path d="M484.791 527.629L476.163 532.482L484.791 537.47V527.629Z" fill="white"/>
<path d="M475.356 550.412L469.693 547.177V553.513L475.356 550.412Z" fill="white"/>
<path d="M451.493 585.194L450.01 586.003L451.493 586.812V585.194Z" fill="white"/>
<path d="M111.491 318.531L111.222 318.666L111.491 318.801V318.531Z" fill="white"/>
<path d="M133.331 282.941L131.308 281.728V284.155L133.331 282.941Z" fill="white"/>
<path d="M143.308 263.393L140.207 265.146L143.308 267.033V263.393Z" fill="white"/>
<path d="M143.711 226.994L139.397 229.555L143.711 231.982V226.994Z" fill="white"/>
<path d="M166.495 229.555L161.103 226.319V232.655L166.495 229.555Z" fill="white"/>
<path d="M206.67 224.971L198.715 229.554L206.67 234.138V224.971Z" fill="white"/>
<path d="M230.667 229.555L221.634 224.297V234.678L230.667 229.555Z" fill="white"/>
<path d="M269.494 223.083L258.439 229.554L269.494 235.891V223.083Z" fill="white"/>
<path d="M294.165 229.554L282.436 222.814V236.295L294.165 229.554Z" fill="white"/>
<path d="M331.508 222.543L319.509 229.554L331.508 236.429V222.543Z" fill="white"/>
<path d="M356.044 229.554L344.18 222.543V236.429L356.044 229.554Z" fill="white"/>
<path d="M393.118 222.814L381.524 229.554L393.118 236.16V222.814Z" fill="white"/>
<path d="M417.25 229.554L406.195 223.083V235.891L417.25 229.554Z" fill="white"/>
<path d="M424.261 240.069L411.858 247.349L424.261 254.495V240.069Z" fill="white"/>
<path d="M450.548 282.94L435.854 274.447V291.434L450.548 282.94Z" fill="white"/>
<path d="M456.211 291.839L440.707 300.737L456.211 309.769V291.839Z" fill="white"/>
<path d="M483.175 336.461L465.784 326.35V346.438L483.175 336.461Z" fill="white"/>
<path d="M488.028 343.472L469.423 354.258L488.028 365.043V343.472Z" fill="white"/>
<path d="M516.338 389.983L495.577 377.985V401.982L516.338 389.983Z" fill="white"/>
<path d="M519.978 395.241L498.407 407.779L519.978 420.182V395.241Z" fill="white"/>
<path d="M548.155 443.37L525.91 430.562V456.177L548.155 443.37Z" fill="white"/>
<path d="M551.121 448.223L528.742 461.165L551.121 474.107V448.223Z" fill="white"/>
<path d="M547.076 479.095L526.45 467.231V490.958L547.076 479.095Z" fill="white"/>
<path d="M517.551 506.328L503.126 514.687L517.551 523.045V506.328Z" fill="white"/>
<path d="M509.732 532.482L498.812 526.146V538.818L509.732 532.482Z" fill="white"/>
<path d="M483.578 565.377L478.59 568.208L483.578 571.039V565.377Z" fill="white"/>
<path d="M473.468 586.003L470.636 584.385V587.621L473.468 586.003Z" fill="white"/>
<path d="M101.516 300.737L100.976 300.467V301.141L101.516 300.737Z" fill="white"/>
<path d="M111.895 282.267L110.547 282.941L111.895 283.749V282.267Z" fill="white"/>
<path d="M134.275 247.35L130.905 245.328V249.237L134.275 247.35Z" fill="white"/>
<path d="M134.814 211.624L130.635 209.197V214.185L134.814 211.624Z" fill="white"/>
<path d="M175.258 208.119L168.922 211.624L175.258 215.264V208.119Z" fill="white"/>
<path d="M198.58 211.624L191.3 207.445V215.938L198.58 211.624Z" fill="white"/>
<path d="M237.946 206.366L228.779 211.624L237.946 217.017V206.366Z" fill="white"/>
<path d="M262.079 211.624L252.237 205.962V217.421L262.079 211.624Z" fill="white"/>
<path d="M300.096 205.692L289.715 211.624L300.096 217.69V205.692Z" fill="white"/>
<path d="M324.363 211.625L313.713 205.558V217.826L324.363 211.625Z" fill="white"/>
<path d="M361.841 205.826L351.595 211.623L361.841 217.555V205.826Z" fill="white"/>
<path d="M385.569 211.624L375.592 205.962V217.421L385.569 211.624Z" fill="white"/>
<path d="M423.181 206.366L414.014 211.624L423.181 217.017V206.366Z" fill="white"/>
<path d="M448.93 247.35L436.662 240.34V254.36L448.93 247.35Z" fill="white"/>
<path d="M455.538 257.191L441.922 265.145L455.538 273.099V257.191Z" fill="white"/>
<path d="M482.095 300.736L466.322 291.703V309.903L482.095 300.736Z" fill="white"/>
<path d="M487.488 308.825L470.636 318.666L487.488 328.373V308.825Z" fill="white"/>
<path d="M515.53 354.258L495.982 342.934V365.582L515.53 354.258Z" fill="white"/>
<path d="M519.708 359.92L498.812 372.053L519.708 384.186V359.92Z" fill="white"/>
<path d="M548.693 407.779L525.64 394.432V420.99L548.693 407.779Z" fill="white"/>
<path d="M551.389 412.227L528.201 425.574L551.389 438.92V412.227Z" fill="white"/>
<path d="M579.836 461.165L556.379 447.683V474.781L579.836 461.165Z" fill="white"/>
<path d="M550.176 485.432L530.493 496.891L550.176 508.215V485.432Z" fill="white"/>
<path d="M544.515 514.686L527.798 504.979V524.393L544.515 514.686Z" fill="white"/>
<path d="M516.068 544.615L506.227 550.412L516.068 556.074V544.615Z" fill="white"/>
<path d="M507.036 568.208L500.16 564.163V572.117L507.036 568.208Z" fill="white"/>
<path d="M482.635 602.586L480.343 603.799L482.635 605.147V602.586Z" fill="white"/>
<path d="M471.984 621.594L471.445 621.325V621.999L471.984 621.594Z" fill="white"/>
<path d="M80.6194 300.602L80.3498 300.736L80.6194 301.006V300.602Z" fill="white"/>
<path d="M102.189 265.146L100.571 264.202V266.089L102.189 265.146Z" fill="white"/>
<path d="M112.3 245.867L109.738 247.35L112.3 248.698V245.867Z" fill="white"/>
<path d="M143.846 190.997L139.128 193.828L143.846 196.659V190.997Z" fill="white"/>
<path d="M166.63 193.828L160.968 190.593V197.064L166.63 193.828Z" fill="white"/>
<path d="M206.536 189.649L199.121 193.829L206.536 198.143V189.649Z" fill="white"/>
<path d="M229.992 193.829L221.903 189.245V198.412L229.992 193.829Z" fill="white"/>
<path d="M268.819 188.706L259.787 193.829L268.819 199.086V188.706Z" fill="white"/>
<path d="M292.412 193.829L283.379 188.571V199.087L292.412 193.829Z" fill="white"/>
<path d="M330.565 188.706L321.532 193.829L330.565 199.086V188.706Z" fill="white"/>
<path d="M353.887 193.828L345.259 188.84V198.816L353.887 193.828Z" fill="white"/>
<path d="M391.905 189.245L383.816 193.829L391.905 198.547V189.245Z" fill="white"/>
<path d="M414.957 193.829L407.273 189.515V198.278L414.957 193.829Z" fill="white"/>
<path d="M446.639 211.624L437.741 206.501V216.882L446.639 211.624Z" fill="white"/>
<path d="M454.593 223.352L443.943 229.554L454.593 235.621V223.352Z" fill="white"/>
<path d="M480.747 265.145L466.996 257.326V273.099L480.747 265.145Z" fill="white"/>
<path d="M486.814 274.313L471.985 282.941L486.814 291.569V274.313Z" fill="white"/>
<path d="M514.047 318.667L496.656 308.556V328.643L514.047 318.667Z" fill="white"/>
<path d="M519.034 325.542L500.295 336.462L519.034 347.247V325.542Z" fill="white"/>
<path d="M547.75 372.053L526.045 359.515V384.59L547.75 372.053Z" fill="white"/>
<path d="M551.256 376.637L528.337 389.983L551.256 403.195V376.637Z" fill="white"/>
<path d="M580.106 425.575L556.244 411.823V439.326L580.106 425.575Z" fill="white"/>
<path d="M582.533 429.484L558.401 443.37L582.533 457.256V429.484Z" fill="white"/>
<path d="M582.128 465.884L559.344 479.095L582.128 492.172V465.884Z" fill="white"/>
<path d="M578.083 496.891L557.322 484.893V508.89L578.083 496.891Z" fill="white"/>
<path d="M548.693 523.719L533.459 532.482L548.693 541.245V523.719Z" fill="white"/>
<path d="M541.279 550.412L529.415 543.402V557.288L541.279 550.412Z" fill="white"/>
<path d="M514.855 582.363L508.519 586.003L514.855 589.643V582.363Z" fill="white"/>
<path d="M504.879 603.799L501.239 601.642V605.956L504.879 603.799Z" fill="white"/>
<path d="M70.6423 282.94L70.1031 282.671V283.21L70.6423 282.94Z" fill="white"/>
<path d="M80.8879 264.606L79.8093 265.145L80.8879 265.684V264.606Z" fill="white"/>
<path d="M102.864 229.554L100.302 228.071V230.902L102.864 229.554Z" fill="white"/>
<path d="M112.569 209.736L109.199 211.623L112.569 213.646V209.736Z" fill="white"/>
<path d="M112.569 174.011L109.064 176.033L112.569 178.055V174.011Z" fill="white"/>
<path d="M134.814 176.033L130.635 173.607V178.46L134.814 176.033Z" fill="white"/>
<path d="M174.988 172.798L169.461 176.033L174.988 179.269V172.798Z" fill="white"/>
<path d="M197.907 176.034L191.706 172.394V179.674L197.907 176.034Z" fill="white"/>
<path d="M237.273 171.854L230.128 176.033L237.273 180.213V171.854Z" fill="white"/>
<path d="M260.46 176.033L253.046 171.719V180.347L260.46 176.033Z" fill="white"/>
<path d="M299.153 171.719L291.603 176.033L299.153 180.347V171.719Z" fill="white"/>
<path d="M322.206 176.033L314.791 171.719V180.347L322.206 176.033Z" fill="white"/>
<path d="M360.628 171.989L353.752 176.033L360.628 180.078V171.989Z" fill="white"/>
<path d="M383.411 176.033L376.805 172.258V179.807L383.411 176.033Z" fill="white"/>
<path d="M422.103 172.528L416.171 176.033L422.103 179.538V172.528Z" fill="white"/>
<path d="M444.752 176.033L438.686 172.528V179.538L444.752 176.033Z" fill="white"/>
<path d="M453.515 189.515L446.1 193.829L453.515 198.143V189.515Z" fill="white"/>
<path d="M478.59 229.555L468.075 223.488V235.487L478.59 229.555Z" fill="white"/>
<path d="M485.87 240.474L473.871 247.35L485.87 254.225V240.474Z" fill="white"/>
<path d="M512.429 282.941L497.464 274.313V291.704L512.429 282.941Z" fill="white"/>
<path d="M518.091 291.434L501.913 300.736L518.091 310.173V291.434Z" fill="white"/>
<path d="M545.997 336.462L526.988 325.408V347.517L545.997 336.462Z" fill="white"/>
<path d="M550.446 342.394L529.954 354.257L550.446 366.121V342.394Z" fill="white"/>
<path d="M579.701 389.984L556.513 376.502V403.33L579.701 389.984Z" fill="white"/>
<path d="M582.533 393.893L558.536 407.778L582.533 421.529V393.893Z" fill="white"/>
<path d="M611.113 443.37L587.116 429.484V457.256L611.113 443.37Z" fill="white"/>
<path d="M613.269 447.55L589.677 461.166L613.269 474.782V447.55Z" fill="white"/>
<path d="M610.303 479.095L587.52 465.884V492.307L610.303 479.095Z" fill="white"/>
<path d="M580.914 503.632L561.771 514.686L580.914 525.741V503.632Z" fill="white"/>
<path d="M575.117 532.482L558.804 523.18V541.919L575.117 532.482Z" fill="white"/>
<path d="M547.076 562.141L536.696 568.208L547.076 574.139V562.141Z" fill="white"/>
<path d="M538.582 586.003L530.763 581.42V590.587L538.582 586.003Z" fill="white"/>
<path d="M513.642 620.112L510.945 621.595L513.642 623.212V620.112Z" fill="white"/>
<path d="M502.991 639.524L502.182 638.985V639.929L502.991 639.524Z" fill="white"/>
<path d="M49.7462 282.806L49.4765 282.941L49.7462 283.076V282.806Z" fill="white"/>
<path d="M71.0472 247.35L69.8339 246.541V248.024L71.0472 247.35Z" fill="white"/>
<path d="M81.1579 228.476L79.2705 229.554L81.1579 230.633V228.476Z" fill="white"/>
<path d="M103.132 193.829L100.031 192.076V195.581L103.132 193.829Z" fill="white"/>
<path d="M103.267 158.237L100.032 156.35V159.99L103.267 158.237Z" fill="white"/>
<path d="M143.711 155.81L139.397 158.237L143.711 160.664V155.81Z" fill="white"/>
<path d="M165.956 158.237L161.237 155.541V160.933L165.956 158.237Z" fill="white"/>
<path d="M205.861 154.868L200.199 158.238L205.861 161.473V154.868Z" fill="white"/>
<path d="M228.644 158.237L222.577 154.732V161.607L228.644 158.237Z" fill="white"/>
<path d="M267.876 154.597L261.54 158.237L267.876 161.877V154.597Z" fill="white"/>
<path d="M290.524 158.237L284.322 154.597V161.742L290.524 158.237Z" fill="white"/>
<path d="M329.486 154.732L323.554 158.237L329.486 161.607V154.732Z" fill="white"/>
<path d="M351.866 158.238L346.203 154.868V161.473L351.866 158.238Z" fill="white"/>
<path d="M390.961 155.137L385.838 158.238L390.961 161.204V155.137Z" fill="white"/>
<path d="M413.071 158.237L408.217 155.406V161.068L413.071 158.237Z" fill="white"/>
<path d="M452.706 155.272L447.718 158.238L452.706 161.069V155.272Z" fill="white"/>
<path d="M476.567 193.829L469.153 189.515V198.143L476.567 193.829Z" fill="white"/>
<path d="M484.791 206.501L476.029 211.624L484.791 216.747V206.501Z" fill="white"/>
<path d="M510.407 247.35L498.543 240.474V254.225L510.407 247.35Z" fill="white"/>
<path d="M517.281 257.326L503.8 265.145L517.281 272.964V257.326Z" fill="white"/>
<path d="M543.975 300.736L528.067 291.569V310.038L543.975 300.736Z" fill="white"/>
<path d="M549.368 308.691L532.246 318.667L549.368 328.508V308.691Z" fill="white"/>
<path d="M577.813 354.257L557.456 342.528V365.986L577.813 354.257Z" fill="white"/>
<path d="M581.723 359.515L559.883 372.053L581.723 384.725V359.515Z" fill="white"/>
<path d="M610.978 407.779L587.116 394.028V421.53L610.978 407.779Z" fill="white"/>
<path d="M613.269 411.823L589.542 425.575L613.269 439.326V411.823Z" fill="white"/>
<path d="M641.311 461.166L618.258 447.954V474.512L641.311 461.166Z" fill="white"/>
<path d="M612.461 484.757L591.295 496.89L612.461 509.024V484.757Z" fill="white"/>
<path d="M607.877 514.686L588.733 503.632V525.741L607.877 514.686Z" fill="white"/>
<path d="M579.026 542.458L565.41 550.412L579.026 558.232V542.458Z" fill="white"/>
<path d="M571.747 568.208L560.423 561.737V574.679L571.747 568.208Z" fill="white"/>
<path d="M545.728 600.158L539.392 603.798L545.728 607.438V600.158Z" fill="white"/>
<path d="M535.886 621.594L532.111 619.437V623.886L535.886 621.594Z" fill="white"/>
<path d="M512.833 657.186L512.699 657.32L512.833 657.455V657.186Z" fill="white"/>
<path d="M39.7691 265.146L39.2298 264.877V265.416L39.7691 265.146Z" fill="white"/>
<path d="M50.0161 246.811L49.0724 247.35L50.0161 247.754V246.811Z" fill="white"/>
<path d="M71.5856 211.624L69.5634 210.546V212.838L71.5856 211.624Z" fill="white"/>
<path d="M81.2928 192.48L79.0009 193.828L81.2928 195.177V192.48Z" fill="white"/>
<path d="M112.435 138.555L109.199 140.442L112.435 142.195V138.555Z" fill="white"/>
<path d="M134.409 140.441L130.769 138.284V142.464L134.409 140.441Z" fill="white"/>
<path d="M174.584 137.88L170.27 140.442L174.584 142.868V137.88Z" fill="white"/>
<path d="M196.829 140.442L192.245 137.746V143.003L196.829 140.442Z" fill="white"/>
<path d="M236.598 137.476L231.61 140.442L236.598 143.273V137.476Z" fill="white"/>
<path d="M258.842 140.442L253.854 137.476V143.273L258.842 140.442Z" fill="white"/>
<path d="M298.345 137.476L293.356 140.442L298.345 143.273V137.476Z" fill="white"/>
<path d="M320.454 140.442L315.601 137.611V143.138L320.454 140.442Z" fill="white"/>
<path d="M359.818 137.746L355.369 140.442L359.818 143.003V137.746Z" fill="white"/>
<path d="M381.794 140.443L377.615 138.016V142.734L381.794 140.443Z" fill="white"/>
<path d="M421.428 138.151L417.519 140.443L421.428 142.6V138.151Z" fill="white"/>
<path d="M443.269 140.443L439.359 138.151V142.6L443.269 140.443Z" fill="white"/>
<path d="M475.086 158.238L469.828 155.137V161.204L475.086 158.238Z" fill="white"/>
<path d="M483.983 172.394L477.782 176.034L483.983 179.674V172.394Z" fill="white"/>
<path d="M508.384 211.624L499.486 206.635V216.747L508.384 211.624Z" fill="white"/>
<path d="M516.068 223.623L505.957 229.555L516.068 235.352V223.623Z" fill="white"/>
<path d="M542.089 265.145L529.012 257.595V272.695L542.089 265.145Z" fill="white"/>
<path d="M548.425 274.717L534.134 282.941L548.425 291.165V274.717Z" fill="white"/>
<path d="M575.252 318.667L558.67 309.095V328.238L575.252 318.667Z" fill="white"/>
<path d="M580.645 325.946L562.31 336.462L580.645 346.977V325.946Z" fill="white"/>
<path d="M609.36 372.053L587.924 359.785V384.456L609.36 372.053Z" fill="white"/>
<path d="M612.865 376.906L590.351 389.983L612.865 402.925V376.906Z" fill="white"/>
<path d="M641.311 425.574L618.258 412.227V438.92L641.311 425.574Z" fill="white"/>
<path d="M643.873 430.157L620.954 443.369L643.873 456.716V430.157Z" fill="white"/>
<path d="M643.468 466.693L621.898 479.096L643.468 491.498V466.693Z" fill="white"/>
<path d="M639.558 496.891L619.201 485.027V508.62L639.558 496.891Z" fill="white"/>
<path d="M610.843 523.045L594.396 532.482L610.843 542.054V523.045Z" fill="white"/>
<path d="M604.372 550.413L590.486 542.324V558.367L604.372 550.413Z" fill="white"/>
<path d="M577.543 580.611L568.376 586.003L577.543 591.261V580.611Z" fill="white"/>
<path d="M568.781 603.799L561.905 599.889V607.708L568.781 603.799Z" fill="white"/>
<path d="M544.38 638.042L542.088 639.524L544.38 640.873V638.042Z" fill="white"/>
<path d="M533.864 657.32L533.056 656.781V657.724L533.864 657.32Z" fill="white"/>
<path d="M40.039 229.554L39.0953 228.88V230.093L40.039 229.554Z" fill="white"/>
<path d="M50.1511 210.815L48.6682 211.624L50.1511 212.433V210.815Z" fill="white"/>
<path d="M71.7205 176.033L69.5635 174.685V177.246L71.7205 176.033Z" fill="white"/>
<path d="M81.4277 156.755L78.8663 158.238L81.4277 159.721V156.755Z" fill="white"/>
<path d="M81.2928 121.299L79.0009 122.512L81.2928 123.86V121.299Z" fill="white"/>
<path d="M102.864 122.512L100.167 121.029V124.129L102.864 122.512Z" fill="white"/>
<path d="M143.308 120.758L140.207 122.511L143.308 124.398V120.758Z" fill="white"/>
<path d="M165.012 122.512L161.777 120.625V124.4L165.012 122.512Z" fill="white"/>
<path d="M205.188 120.49L201.683 122.513L205.188 124.67V120.49Z" fill="white"/>
<path d="M227.162 122.512L223.387 120.355V124.669L227.162 122.512Z" fill="white"/>
<path d="M267.066 120.355L263.292 122.512L267.066 124.669V120.355Z" fill="white"/>
<path d="M288.906 122.512L285.131 120.355V124.669L288.906 122.512Z" fill="white"/>
<path d="M328.676 120.49L325.171 122.513L328.676 124.67V120.49Z" fill="white"/>
<path d="M350.382 122.513L346.877 120.49V124.535L350.382 122.513Z" fill="white"/>
<path d="M390.287 120.758L387.186 122.511L390.287 124.398V120.758Z" fill="white"/>
<path d="M411.858 122.512L408.892 120.894V124.264L411.858 122.512Z" fill="white"/>
<path d="M452.167 120.625L448.796 122.512L452.167 124.4V120.625Z" fill="white"/>
<path d="M474.006 122.513L470.366 120.49V124.67L474.006 122.513Z" fill="white"/>
<path d="M483.443 137.746L478.86 140.442L483.443 143.003V137.746Z" fill="white"/>
<path d="M506.767 176.033L500.296 172.258V179.807L506.767 176.033Z" fill="white"/>
<path d="M515.26 189.515L507.71 193.829L515.26 198.143V189.515Z" fill="white"/>
<path d="M539.796 229.554L530.089 223.892V235.082L539.796 229.554Z" fill="white"/>
<path d="M547.211 241.014L536.291 247.35L547.211 253.687V241.014Z" fill="white"/>
<path d="M573.23 282.94L559.749 275.121V290.76L573.23 282.94Z" fill="white"/>
<path d="M579.431 292.378L564.737 300.736L579.431 309.23V292.378Z" fill="white"/>
<path d="M606.798 336.461L589.273 326.35V346.572L606.798 336.461Z" fill="white"/>
<path d="M611.786 343.203L592.508 354.258L611.786 365.312V343.203Z" fill="white"/>
<path d="M640.502 389.984L618.662 377.311V402.521L640.502 389.984Z" fill="white"/>
<path d="M643.738 394.837L621.359 407.779L643.738 420.721V394.837Z" fill="white"/>
<path d="M671.51 443.369L649.535 430.697V456.042L671.51 443.369Z" fill="white"/>
<path d="M674.206 449.032L653.04 461.165L674.206 473.433V449.032Z" fill="white"/>
<path d="M670.432 479.095L650.075 467.231V490.824L670.432 479.095Z" fill="white"/>
<path d="M642.12 504.441L624.459 514.687L642.12 524.932V504.441Z" fill="white"/>
<path d="M636.457 532.482L620.684 523.449V541.649L636.457 532.482Z" fill="white"/>
<path d="M609.09 561.601L597.9 568.207L609.09 574.678V561.601Z" fill="white"/>
<path d="M601.136 586.003L592.103 580.745V591.261L601.136 586.003Z" fill="white"/>
<path d="M576.062 619.032L571.478 621.594L576.062 624.29V619.032Z" fill="white"/>
<path d="M565.95 639.525L563.388 637.907V641.008L565.95 639.525Z" fill="white"/>
<path d="M40.3089 193.829L38.9608 193.02V194.638L40.3089 193.829Z" fill="white"/>
<path d="M50.2846 175.089L48.5321 176.033L50.2846 176.976V175.089Z" fill="white"/>
<path d="M71.7205 140.442L69.5635 139.094V141.655L71.7205 140.442Z" fill="white"/>
<path d="M71.4506 104.717L69.698 103.773V105.796L71.4506 104.717Z" fill="white"/>
<path d="M112.165 103.503L109.873 104.716L112.165 106.065V103.503Z" fill="white"/>
<path d="M133.601 104.716L131.174 103.368V106.064L133.601 104.716Z" fill="white"/>
<path d="M173.91 103.368L171.618 104.716L173.91 106.064V103.368Z" fill="white"/>
<path d="M195.346 104.716L192.919 103.368V106.199L195.346 104.716Z" fill="white"/>
<path d="M235.79 103.234L233.228 104.716L235.79 106.199V103.234Z" fill="white"/>
<path d="M257.091 104.716L254.664 103.234V106.199L257.091 104.716Z" fill="white"/>
<path d="M297.535 103.234L294.973 104.716L297.535 106.199V103.234Z" fill="white"/>
<path d="M318.836 104.716L316.409 103.368V106.064L318.836 104.716Z" fill="white"/>
<path d="M359.145 103.368L356.853 104.716L359.145 106.064V103.368Z" fill="white"/>
<path d="M380.446 104.716L378.289 103.503V105.93L380.446 104.716Z" fill="white"/>
<path d="M420.89 103.503L418.733 104.716L420.89 105.93V103.503Z" fill="white"/>
<path d="M442.324 104.716L439.898 103.368V106.064L442.324 104.716Z" fill="white"/>
<path d="M482.905 102.829L479.669 104.716L482.905 106.603V102.829Z" fill="white"/>
<path d="M505.688 140.442L500.834 137.611V143.138L505.688 140.442Z" fill="white"/>
<path d="M514.72 154.868L508.923 158.238L514.72 161.608V154.868Z" fill="white"/>
<path d="M538.312 193.829L530.898 189.649V198.143L538.312 193.829Z" fill="white"/>
<path d="M546.402 206.906L538.178 211.624L546.402 216.478V206.906Z" fill="white"/>
<path d="M571.072 247.35L560.826 241.418V253.282L571.072 247.35Z" fill="white"/>
<path d="M578.353 258.539L566.894 265.145L578.353 271.751V258.539Z" fill="white"/>
<path d="M604.102 300.737L590.621 292.917V308.691L604.102 300.737Z" fill="white"/>
<path d="M610.303 310.039L595.474 318.667L610.303 327.295V310.039Z" fill="white"/>
<path d="M638.21 354.258L619.875 343.743V364.909L638.21 354.258Z" fill="white"/>
<path d="M642.928 360.594L622.976 372.054L642.928 383.513V360.594Z" fill="white"/>
<path d="M671.24 407.779L649.67 395.241V420.182L671.24 407.779Z" fill="white"/>
<path d="M674.341 413.036L652.771 425.574L674.341 438.112V413.036Z" fill="white"/>
<path d="M701.033 461.166L681.081 449.572V472.76L701.033 461.166Z" fill="white"/>
<path d="M673.126 486.511L655.196 496.892L673.126 507.137V486.511Z" fill="white"/>
<path d="M667.735 514.687L651.423 505.25V524.124L667.735 514.687Z" fill="white"/>
<path d="M640.368 543.133L627.965 550.413L640.368 557.558V543.133Z" fill="white"/>
<path d="M633.087 568.208L622.437 562.006V574.409L633.087 568.208Z" fill="white"/>
<path d="M607.607 599.889L600.866 603.799L607.607 607.708V599.889Z" fill="white"/>
<path d="M598.036 621.594L593.587 619.032V624.155L598.036 621.594Z" fill="white"/>
<path d="M574.848 656.646L573.77 657.32L574.848 657.994V656.646Z" fill="white"/>
<path d="M40.4436 158.238L38.8261 157.294V159.046L40.4436 158.238Z" fill="white"/>
<path d="M50.2846 139.364L48.5321 140.442L50.2846 141.386V139.364Z" fill="white"/>
<path d="M81.0228 86.1116L79.5399 86.9205L81.0228 87.7294V86.1116Z" fill="white"/>
<path d="M102.189 86.9207L100.571 85.9771V87.8644L102.189 86.9207Z" fill="white"/>
<path d="M142.768 85.9771L141.15 86.9207L142.768 87.8644V85.9771Z" fill="white"/>
<path d="M163.934 86.9207L162.316 85.9771V87.8644L163.934 86.9207Z" fill="white"/>
<path d="M204.513 86.1116L203.03 86.9205L204.513 87.7294V86.1116Z" fill="white"/>
<path d="M225.544 86.9205L224.196 86.1116V87.7294L225.544 86.9205Z" fill="white"/>
<path d="M266.258 86.1116L264.775 86.9205L266.258 87.7294V86.1116Z" fill="white"/>
<path d="M287.289 86.9205L285.941 86.1116V87.7294L287.289 86.9205Z" fill="white"/>
<path d="M328.003 85.9771L326.52 86.9207L328.003 87.8644V85.9771Z" fill="white"/>
<path d="M349.169 86.9207L347.551 85.9771V87.8644L349.169 86.9207Z" fill="white"/>
<path d="M389.748 85.9771L388.265 86.9207L389.748 87.8644V85.9771Z" fill="white"/>
<path d="M410.913 86.9207L409.295 85.9771V87.8644L410.913 86.9207Z" fill="white"/>
<path d="M451.762 85.5729L449.47 86.921L451.762 88.1344V85.5729Z" fill="white"/>
<path d="M473.333 86.9204L470.636 85.3026V88.4033L473.333 86.9204Z" fill="white"/>
<path d="M504.879 104.716L501.239 102.559V106.873L504.879 104.716Z" fill="white"/>
<path d="M514.182 120.085L509.868 122.512L514.182 125.073V120.085Z" fill="white"/>
<path d="M537.234 158.237L531.437 154.732V161.607L537.234 158.237Z" fill="white"/>
<path d="M545.863 172.258L539.257 176.033L545.863 179.807V172.258Z" fill="white"/>
<path d="M569.321 211.624L561.636 207.175V216.208L569.321 211.624Z" fill="white"/>
<path d="M577.275 224.701L568.916 229.554L577.275 234.273V224.701Z" fill="white"/>
<path d="M601.946 265.145L591.7 259.213V271.077L601.946 265.145Z" fill="white"/>
<path d="M609.225 276.335L597.766 282.941L609.225 289.547V276.335Z" fill="white"/>
<path d="M635.109 318.667L621.358 310.713V326.621L635.109 318.667Z" fill="white"/>
<path d="M641.446 327.43L625.943 336.462L641.446 345.36V327.43Z" fill="white"/>
<path d="M669.487 372.053L650.478 361.133V382.973L669.487 372.053Z" fill="white"/>
<path d="M673.801 378.254L653.714 389.983L673.801 401.577V378.254Z" fill="white"/>
<path d="M701.573 425.575L680.812 413.576V437.573L701.573 425.575Z" fill="white"/>
<path d="M704.808 431.641L684.451 443.369L704.808 455.098V431.641Z" fill="white"/>
<path d="M704 468.715L686.069 479.095L704 489.341V468.715Z" fill="white"/>
<path d="M698.607 496.89L682.294 487.453V506.327L698.607 496.89Z" fill="white"/>
<path d="M671.51 524.932L658.433 532.482L671.51 540.031V524.932Z" fill="white"/>
<path d="M664.23 550.413L653.176 543.942V556.749L664.23 550.413Z" fill="white"/>
<path d="M638.885 581.42L630.931 586.003L638.885 590.587V581.42Z" fill="white"/>
<path d="M630.121 603.799L623.92 600.293V607.304L630.121 603.799Z" fill="white"/>
<path d="M606.259 638.042L603.697 639.524L606.259 640.873V638.042Z" fill="white"/>
<path d="M595.745 657.32L594.801 656.646V657.859L595.745 657.32Z" fill="white"/>
<path d="M40.3089 122.512L38.826 121.703V123.456L40.3089 122.512Z" fill="white"/>
<path d="M50.1511 103.907L48.8029 104.716L50.1511 105.525V103.907Z" fill="white"/>
<path d="M49.8811 68.7213L49.207 69.1257L49.8811 69.5302V68.7213Z" fill="white"/>
<path d="M70.7772 69.126L69.9683 68.5867V69.5304L70.7772 69.126Z" fill="white"/>
<path d="M111.761 68.451L110.683 69.1251L111.761 69.6644V68.451Z" fill="white"/>
<path d="M132.657 69.1251L131.714 68.451V69.6644L132.657 69.1251Z" fill="white"/>
<path d="M173.371 68.7213L172.697 69.1257L173.371 69.5302V68.7213Z" fill="white"/>
<path d="M194.267 69.1257L193.458 68.7213V69.5302L194.267 69.1257Z" fill="white"/>
<path d="M235.116 68.7213L234.442 69.1257L235.116 69.5302V68.7213Z" fill="white"/>
<path d="M255.877 69.1257L255.203 68.7213V69.5302L255.877 69.1257Z" fill="white"/>
<path d="M296.861 68.5867L296.052 69.126L296.861 69.5304V68.5867Z" fill="white"/>
<path d="M317.892 69.126L316.949 68.5867V69.6652L317.892 69.126Z" fill="white"/>
<path d="M358.74 68.451L357.661 69.1251L358.74 69.7992V68.451Z" fill="white"/>
<path d="M379.772 69.1253L378.559 68.3164V69.7994L379.772 69.1253Z" fill="white"/>
<path d="M420.62 68.1818L419.137 69.1255L420.62 69.9344V68.1818Z" fill="white"/>
<path d="M442.056 69.1256L440.034 67.9122V70.2041L442.056 69.1256Z" fill="white"/>
<path d="M482.77 67.5074L480.074 69.1251L482.77 70.6081V67.5074Z" fill="white"/>
<path d="M504.609 69.1255L501.374 67.2382V70.8781L504.609 69.1255Z" fill="white"/>
<path d="M513.912 84.7638L510.272 86.9208L513.912 89.0779V84.7638Z" fill="white"/>
<path d="M536.561 122.512L531.708 119.816V125.343L536.561 122.512Z" fill="white"/>
<path d="M545.458 137.206L540.066 140.442L545.458 143.542V137.206Z" fill="white"/>
<path d="M568.511 176.033L562.04 172.258V179.807L568.511 176.033Z" fill="white"/>
<path d="M576.735 190.054L570.129 193.829L576.735 197.604V190.054Z" fill="white"/>
<path d="M599.923 229.554L592.643 225.24V233.733L599.923 229.554Z" fill="white"/>
<path d="M608.147 242.632L599.923 247.351L608.147 252.069V242.632Z" fill="white"/>
<path d="M632.682 282.94L622.571 277.143V288.872L632.682 282.94Z" fill="white"/>
<path d="M639.963 294.4L628.774 300.736L639.963 307.207V294.4Z" fill="white"/>
<path d="M666.522 336.462L651.962 328.104V344.821L666.522 336.462Z" fill="white"/>
<path d="M672.588 344.821L656.141 354.258L672.588 363.695V344.821Z" fill="white"/>
<path d="M700.63 389.983L681.217 378.659V401.173L700.63 389.983Z" fill="white"/>
<path d="M704.674 396.05L684.587 407.779L704.674 419.373V396.05Z" fill="white"/>
<path d="M731.772 443.37L711.954 432.046V454.829L731.772 443.37Z" fill="white"/>
<path d="M735.141 450.514L716.402 461.165L735.141 471.95V450.514Z" fill="white"/>
<path d="M729.884 479.096L712.897 469.254V488.802L729.884 479.096Z" fill="white"/>
<path d="M702.382 507.137L689.17 514.687L702.382 522.236V507.137Z" fill="white"/>
<path d="M695.371 532.482L683.912 525.876V539.088L695.371 532.482Z" fill="white"/>
<path d="M669.892 563.355L661.668 568.208L669.892 572.927V563.355Z" fill="white"/>
<path d="M661.398 586.004L654.522 582.094V589.913L661.398 586.004Z" fill="white"/>
<path d="M637.402 619.572L633.897 621.594L637.402 623.616V619.572Z" fill="white"/>
<path d="M627.425 639.524L625.268 638.176V640.738L627.425 639.524Z" fill="white"/>
<path d="M40.039 86.9201L39.0953 86.3809V87.4594L40.039 86.9201Z" fill="white"/>
<path d="M39.5006 51.1953H39.3657V51.3301L39.5006 51.1953Z" fill="white"/>
<path d="M80.7529 50.925L80.2137 51.1946L80.7529 51.5991V50.925Z" fill="white"/>
<path d="M101.516 51.1946L100.976 50.925V51.5991L101.516 51.1946Z" fill="white"/>
<path d="M142.363 51.0607L141.959 51.1955L142.363 51.4651V51.0607Z" fill="white"/>
<path d="M162.991 51.1955L162.721 51.0607V51.4651L162.991 51.1955Z" fill="white"/>
<path d="M204.108 51.1953H203.973L204.108 51.3301V51.1953Z" fill="white"/>
<path d="M224.736 51.1953H224.601V51.3301L224.736 51.1953Z" fill="white"/>
<path d="M265.853 51.0607L265.584 51.1955L265.853 51.4651V51.0607Z" fill="white"/>
<path d="M286.614 51.1955L286.21 51.0607V51.4651L286.614 51.1955Z" fill="white"/>
<path d="M327.733 50.7904L327.059 51.1948L327.733 51.7341V50.7904Z" fill="white"/>
<path d="M348.764 51.1951L347.821 50.6558V51.8691L348.764 51.1951Z" fill="white"/>
<path d="M389.748 50.5212L388.4 51.1953L389.748 52.0042V50.5212Z" fill="white"/>
<path d="M410.779 51.1951L409.296 50.3862V52.1388L410.779 51.1951Z" fill="white"/>
<path d="M451.762 50.116L449.605 51.1945L451.762 52.4078V50.116Z" fill="white"/>
<path d="M473.333 51.1949L470.771 49.8468V52.6779L473.333 51.1949Z" fill="white"/>
<path d="M513.912 49.3069L510.541 51.1943L513.912 53.2165V49.3069Z" fill="white"/>
<path d="M536.021 86.9211L531.977 84.6292V89.2129L536.021 86.9211Z" fill="white"/>
<path d="M545.188 102.155L540.605 104.717L545.188 107.278V102.155Z" fill="white"/>
<path d="M567.972 140.442L562.31 137.206V143.542L567.972 140.442Z" fill="white"/>
<path d="M576.465 154.732L570.533 158.237L576.465 161.607V154.732Z" fill="white"/>
<path d="M598.979 193.829L593.182 190.458V197.199L598.979 193.829Z" fill="white"/>
<path d="M607.338 208.254L601.406 211.624L607.338 215.129V208.254Z" fill="white"/>
<path d="M630.526 247.35L623.65 243.305V251.259L630.526 247.35Z" fill="white"/>
<path d="M638.885 260.697L631.066 265.146L638.885 269.594V260.697Z" fill="white"/>
<path d="M663.421 300.736L653.579 295.074V306.533L663.421 300.736Z" fill="white"/>
<path d="M670.97 312.06L659.511 318.666L670.97 325.272V312.06Z" fill="white"/>
<path d="M698.203 354.257L682.43 345.225V363.29L698.203 354.257Z" fill="white"/>
<path d="M703.865 361.942L686.339 372.053L703.865 382.164V361.942Z" fill="white"/>
<path d="M731.772 407.779L711.954 396.319V419.103L731.772 407.779Z" fill="white"/>
<path d="M735.411 414.115L715.728 425.574L735.411 437.033V414.115Z" fill="white"/>
<path d="M761.7 461.166L743.365 450.65V471.816L761.7 461.166Z" fill="white"/>
<path d="M733.658 488.668L719.368 496.891L733.658 505.115V488.668Z" fill="white"/>
<path d="M726.514 514.686L714.515 507.81V521.561L726.514 514.686Z" fill="white"/>
<path d="M700.763 545.693L692.54 550.412L700.763 554.996V545.693Z" fill="white"/>
<path d="M692.271 568.207L685.395 564.298V572.117L692.271 568.207Z" fill="white"/>
<path d="M668.544 601.372L664.364 603.798L668.544 606.225V601.372Z" fill="white"/>
<path d="M658.701 621.595L655.87 620.112V623.212L658.701 621.595Z" fill="white"/>
<path d="M636.457 656.915L635.783 657.32L636.457 657.724V656.915Z" fill="white"/>
<path d="M111.491 33.399H111.356L111.491 33.5338V33.399Z" fill="white"/>
<path d="M296.726 33.2644L296.457 33.3992L296.726 33.534V33.2644Z" fill="white"/>
<path d="M317.623 33.3994L317.083 33.1298V33.669L317.623 33.3994Z" fill="white"/>
<path d="M358.74 32.8606L357.796 33.3998L358.74 33.9391V32.8606Z" fill="white"/>
<path d="M379.772 33.3997L378.559 32.7256V34.0737L379.772 33.3997Z" fill="white"/>
<path d="M420.62 32.4553L419.137 33.399L420.62 34.3427V32.4553Z" fill="white"/>
<path d="M442.056 33.4003L440.034 32.3218V34.4788L442.056 33.4003Z" fill="white"/>
<path d="M482.77 31.9169L480.208 33.3999L482.77 34.8828V31.9169Z" fill="white"/>
<path d="M504.339 33.399L501.508 31.7812V35.1516L504.339 33.399Z" fill="white"/>
<path d="M535.751 51.1956L532.111 49.1734V53.3526L535.751 51.1956Z" fill="white"/>
<path d="M544.918 66.6994L541.009 69.126L544.918 71.4179V66.6994Z" fill="white"/>
<path d="M567.433 104.716L562.579 101.885V107.547L567.433 104.716Z" fill="white"/>
<path d="M576.195 119.546L571.072 122.512L576.195 125.612V119.546Z" fill="white"/>
<path d="M598.574 158.238L593.317 155.137V161.204L598.574 158.238Z" fill="white"/>
<path d="M607.068 173.067L601.945 176.033L607.068 178.999V173.067Z" fill="white"/>
<path d="M629.178 211.624L624.324 208.928V214.455L629.178 211.624Z" fill="white"/>
<path d="M637.942 226.723L632.953 229.554L637.942 232.385V226.723Z" fill="white"/>
<path d="M661.129 265.146L654.658 261.371V268.921L661.129 265.146Z" fill="white"/>
<path d="M669.622 278.626L662.072 282.941L669.622 287.389V278.626Z" fill="white"/>
<path d="M694.697 318.667L684.182 312.6V324.599L694.697 318.667Z" fill="white"/>
<path d="M702.248 329.047L689.576 336.461L702.248 343.741V329.047Z" fill="white"/>
<path d="M729.884 372.053L712.897 362.211V381.894L729.884 372.053Z" fill="white"/>
<path d="M735.006 379.199L716.537 389.984L735.006 400.634V379.199Z" fill="white"/>
<path d="M762.509 425.574L742.96 414.249V436.898L762.509 425.574Z" fill="white"/>
<path d="M766.285 432.18L746.737 443.37L766.285 454.694V432.18Z" fill="white"/>
<path d="M765.205 469.658L748.892 479.095L765.205 488.397V469.658Z" fill="white"/>
<path d="M758.599 496.891L744.848 488.937V504.845L758.599 496.891Z" fill="white"/>
<path d="M731.907 527.224L722.739 532.482L731.907 537.739V527.224Z" fill="white"/>
<path d="M723.278 550.412L716.267 546.233V554.457L723.278 550.412Z" fill="white"/>
<path d="M699.415 583.442L695.101 586.003L699.415 588.43V583.442Z" fill="white"/>
<path d="M689.71 603.799L686.744 602.046V605.551L689.71 603.799Z" fill="white"/>
<path d="M667.465 638.851L666.522 639.525L667.465 640.064V638.851Z" fill="white"/>
<path d="M656.95 657.32L656.68 657.186V657.455L656.95 657.32Z" fill="white"/>
<path d="M327.733 15.3345L327.194 15.6042L327.733 15.8738V15.3345Z" fill="white"/>
<path d="M348.629 15.6044L347.82 15.1999V16.0088L348.629 15.6044Z" fill="white"/>
<path d="M389.613 14.9297L388.535 15.6037L389.613 16.2778V14.9297Z" fill="white"/>
<path d="M410.779 15.6047L409.431 14.7958V16.4136L410.779 15.6047Z" fill="white"/>
<path d="M451.627 14.5255L449.739 15.604L451.627 16.6825V14.5255Z" fill="white"/>
<path d="M473.063 15.6044L470.771 14.2563V16.9526L473.063 15.6044Z" fill="white"/>
<path d="M513.777 13.9867L510.811 15.6045L513.777 17.2223V13.9867Z" fill="white"/>
<path d="M535.348 15.6036L532.382 13.8511V17.3562L535.348 15.6036Z" fill="white"/>
<path d="M544.785 31.3771L541.28 33.3993L544.785 35.4215V31.3771Z" fill="white"/>
<path d="M567.163 69.1252L562.714 66.5637V71.5518L567.163 69.1252Z" fill="white"/>
<path d="M576.062 84.2254L571.343 86.9217L576.062 89.618V84.2254Z" fill="white"/>
<path d="M598.306 122.512L593.453 119.681V125.343L598.306 122.512Z" fill="white"/>
<path d="M606.933 137.611L602.215 140.442L606.933 143.138V137.611Z" fill="white"/>
<path d="M628.638 176.033L624.593 173.741V178.325L628.638 176.033Z" fill="white"/>
<path d="M637.537 191.671L633.762 193.828L637.537 195.985V191.671Z" fill="white"/>
<path d="M659.376 229.553L655.601 227.262V231.711L659.376 229.553Z" fill="white"/>
<path d="M668.544 244.923L664.229 247.35L668.544 249.777V244.923Z" fill="white"/>
<path d="M691.866 282.941L685.53 279.301V286.581L691.866 282.941Z" fill="white"/>
<path d="M700.63 296.287L692.811 300.736L700.63 305.32V296.287Z" fill="white"/>
<path d="M726.649 336.462L714.516 329.452V343.473L726.649 336.462Z" fill="white"/>
<path d="M733.793 345.765L719.099 354.258L733.793 362.751V345.765Z" fill="white"/>
<path d="M761.7 389.983L743.365 379.333V400.499L761.7 389.983Z" fill="white"/>
<path d="M766.285 396.454L746.737 407.778L766.285 418.968V396.454Z" fill="white"/>
<path d="M793.652 443.37L773.699 431.911V454.964L793.652 443.37Z" fill="white"/>
<path d="M796.886 450.246L778.013 461.166L796.886 472.221V450.246Z" fill="white"/>
<path d="M791.359 479.095L774.777 469.524V488.532L791.359 479.095Z" fill="white"/>
<path d="M763.318 508.35L752.533 514.687L763.318 521.023V508.35Z" fill="white"/>
<path d="M755.094 532.482L746.601 527.629V537.47L755.094 532.482Z" fill="white"/>
<path d="M730.424 565.377L725.705 568.208L730.424 570.904V565.377Z" fill="white"/>
<path d="M720.851 586.003L717.481 583.98V587.89L720.851 586.003Z" fill="white"/>
<path d="M698.337 621.055L697.259 621.594L698.337 622.269V621.055Z" fill="white"/>
<path d="M687.956 639.524L687.552 639.255V639.659L687.956 639.524Z" fill="white"/>
<path d="M296.726 -2.32607L296.592 -2.19126H296.726V-2.32607Z" fill="white"/>
<path d="M317.488 -2.19126L317.083 -2.32607V-2.05644L317.488 -2.19126Z" fill="white"/>
<path d="M358.605 -2.59635L357.931 -2.19191L358.605 -1.78747V-2.59635Z" fill="white"/>
<path d="M379.636 -2.19184L378.692 -2.86591V-1.65258L379.636 -2.19184Z" fill="white"/>
<path d="M420.62 -3.00052L419.137 -2.19164L420.62 -1.38275V-3.00052Z" fill="white"/>
<path d="M441.921 -2.19122L440.168 -3.26973V-1.24751L441.921 -2.19122Z" fill="white"/>
<path d="M482.635 -3.53894L480.343 -2.1908L482.635 -0.977463V-3.53894Z" fill="white"/>
<path d="M504.204 -2.19166L501.643 -3.67461V-0.708702L504.204 -2.19166Z" fill="white"/>
<path d="M544.648 -3.94418L541.683 -2.1916L544.648 -0.439003V-3.94418Z" fill="white"/>
<path d="M566.759 33.3995L562.984 31.2425V35.6913L566.759 33.3995Z" fill="white"/>
<path d="M575.927 48.9031L571.747 51.1949L575.927 53.6216V48.9031Z" fill="white"/>
<path d="M598.036 86.9204L593.587 84.3589V89.4819L598.036 86.9204Z" fill="white"/>
<path d="M606.798 102.155L602.484 104.717L606.798 107.278V102.155Z" fill="white"/>
<path d="M628.638 140.443L624.593 138.151V142.6L628.638 140.443Z" fill="white"/>
<path d="M637.402 156.215L633.897 158.238L637.402 160.26V156.215Z" fill="white"/>
<path d="M658.568 193.829L656.006 192.346V195.446L658.568 193.829Z" fill="white"/>
<path d="M668.004 210.277L665.442 211.625L668.004 213.108V210.277Z" fill="white"/>
<path d="M689.844 247.35L686.609 245.462V249.102L689.844 247.35Z" fill="white"/>
<path d="M699.282 262.854L695.237 265.145L699.282 267.437V262.854Z" fill="white"/>
<path d="M723.144 300.737L716.269 296.827V304.781L723.144 300.737Z" fill="white"/>
<path d="M731.772 313.544L723.009 318.667L731.772 323.655V313.544Z" fill="white"/>
<path d="M759.004 354.258L744.714 346.034V362.481L759.004 354.258Z" fill="white"/>
<path d="M765.34 362.482L748.623 372.053L765.34 381.625V362.482Z" fill="white"/>
<path d="M793.652 407.779L773.699 396.185V419.238L793.652 407.779Z" fill="white"/>
<path d="M797.426 413.711L776.935 425.574L797.426 437.438V413.711Z" fill="white"/>
<path d="M824.254 461.165L804.706 449.841V472.49L824.254 461.165Z" fill="white"/>
<path d="M795.268 488.802L781.248 496.891L795.268 504.98V488.802Z" fill="white"/>
<path d="M787.584 514.687L776.664 508.35V521.023L787.584 514.687Z" fill="white"/>
<path d="M761.7 546.907L755.903 550.413L761.7 553.783V546.907Z" fill="white"/>
<path d="M752.263 568.208L748.084 565.781V570.635L752.263 568.208Z" fill="white"/>
<path d="M729.345 602.855L727.862 603.798L729.345 604.742V602.855Z" fill="white"/>
<path d="M718.963 621.594L718.424 621.325V621.999L718.963 621.594Z" fill="white"/>
<path d="M327.598 -20.2559L327.194 -19.9863L327.598 -19.8515V-20.2559Z" fill="white"/>
<path d="M348.494 -19.9864L347.955 -20.3909V-19.7168L348.494 -19.9864Z" fill="white"/>
<path d="M389.613 -20.6611L388.535 -19.9871L389.613 -19.4478V-20.6611Z" fill="white"/>
<path d="M410.779 -19.9869L409.431 -20.7958V-19.3128L410.779 -19.9869Z" fill="white"/>
<path d="M451.627 -21.065L449.874 -19.9864L451.627 -19.0427V-21.065Z" fill="white"/>
<path d="M472.928 -19.9862L470.906 -21.1996V-18.9077L472.928 -19.9862Z" fill="white"/>
<path d="M513.642 -21.4702L511.08 -19.9872L513.642 -18.6391V-21.4702Z" fill="white"/>
<path d="M535.078 -19.987L532.381 -21.6048V-18.5041L535.078 -19.987Z" fill="white"/>
<path d="M566.354 -2.19138L563.119 -4.07878V-0.438789L566.354 -2.19138Z" fill="white"/>
<path d="M575.657 13.5818L572.152 15.6041L575.657 17.6263V13.5818Z" fill="white"/>
<path d="M597.901 51.1949L593.722 48.9031V53.6216L597.901 51.1949Z" fill="white"/>
<path d="M606.798 66.6994L602.619 69.126L606.798 71.5527V66.6994Z" fill="white"/>
<path d="M628.638 104.716L624.593 102.424V107.008L628.638 104.716Z" fill="white"/>
<path d="M637.402 120.49L633.897 122.513L637.402 124.67V120.49Z" fill="white"/>
<path d="M658.701 158.237L655.87 156.62V159.72L658.701 158.237Z" fill="white"/>
<path d="M667.869 174.82L665.712 176.033L667.869 177.246V174.82Z" fill="white"/>
<path d="M688.631 211.624L687.283 210.815V212.568L688.631 211.624Z" fill="white"/>
<path d="M698.607 228.476L696.854 229.554L698.607 230.498V228.476Z" fill="white"/>
<path d="M720.716 265.146L717.481 263.393V267.033L720.716 265.146Z" fill="white"/>
<path d="M730.424 280.379L725.84 282.941L730.424 285.637V280.379Z" fill="white"/>
<path d="M754.959 318.666L746.736 313.813V323.385L754.959 318.666Z" fill="white"/>
<path d="M763.452 329.991L752.262 336.462L763.452 342.934V329.991Z" fill="white"/>
<path d="M791.494 372.053L774.777 362.346V381.759L791.494 372.053Z" fill="white"/>
<path d="M796.886 378.928L778.013 389.983L796.886 400.903V378.928Z" fill="white"/>
<path d="M825.332 425.574L804.166 413.306V437.842L825.332 425.574Z" fill="white"/>
<path d="M828.568 431.102L807.267 443.37L828.568 455.638V431.102Z" fill="white"/>
<path d="M827.355 468.715L809.694 479.095L827.355 489.341V468.715Z" fill="white"/>
<path d="M820.884 496.891L806.324 488.533V505.25L820.884 496.891Z" fill="white"/>
<path d="M793.382 527.764L785.158 532.482L793.382 537.201V527.764Z" fill="white"/>
<path d="M784.079 550.412L778.417 547.042V553.648L784.079 550.412Z" fill="white"/>
<path d="M760.487 584.655L758.195 586.003L760.487 587.351V584.655Z" fill="white"/>
<path d="M750.241 603.798L749.028 603.124V604.473L750.241 603.798Z" fill="white"/>
<path d="M296.726 -37.9165H296.592L296.726 -37.7817V-37.9165Z" fill="white"/>
<path d="M317.488 -37.9174L317.083 -38.0522V-37.6478L317.488 -37.9174Z" fill="white"/>
<path d="M358.605 -38.3218L357.931 -37.9173L358.605 -37.5129V-38.3218Z" fill="white"/>
<path d="M379.503 -37.9173L378.694 -38.3218V-37.3781L379.503 -37.9173Z" fill="white"/>
<path d="M420.62 -38.591L419.272 -37.9169L420.62 -37.108V-38.591Z" fill="white"/>
<path d="M441.786 -37.9176L440.168 -38.8613V-36.9739L441.786 -37.9176Z" fill="white"/>
<path d="M482.635 -39.1308L480.478 -37.9175L482.635 -36.7042V-39.1308Z" fill="white"/>
<path d="M503.935 -37.9175L501.777 -39.1308V-36.5694L503.935 -37.9175Z" fill="white"/>
<path d="M544.515 -39.4L541.953 -37.9171L544.515 -36.4341V-39.4Z" fill="white"/>
<path d="M566.084 -37.9171L563.253 -39.4V-36.2993L566.084 -37.9171Z" fill="white"/>
<path d="M575.522 -21.7394L572.556 -19.9868L575.522 -18.2342V-21.7394Z" fill="white"/>
<path d="M597.496 15.6041L593.856 13.5818V17.6263L597.496 15.6041Z" fill="white"/>
<path d="M606.663 31.2425L602.754 33.3995L606.663 35.6913V31.2425Z" fill="white"/>
<path d="M628.504 69.1248L624.729 66.8329V71.2818L628.504 69.1248Z" fill="white"/>
<path d="M637.537 84.7638L633.762 86.9208L637.537 89.0779V84.7638Z" fill="white"/>
<path d="M658.838 122.512L655.872 120.894V124.264L658.838 122.512Z" fill="white"/>
<path d="M668.004 138.959L665.442 140.442L668.004 141.79V138.959Z" fill="white"/>
<path d="M688.631 176.033L687.283 175.225V176.842L688.631 176.033Z" fill="white"/>
<path d="M698.337 193.424L697.393 193.828L698.337 194.368V193.424Z" fill="white"/>
<path d="M719.233 229.555L718.289 229.015V229.959L719.233 229.555Z" fill="white"/>
<path d="M729.345 246.541L727.997 247.35L729.345 248.159V246.541Z" fill="white"/>
<path d="M751.993 282.94L748.083 280.783V285.232L751.993 282.94Z" fill="white"/>
<path d="M761.565 297.5L756.038 300.736L761.565 304.106V297.5Z" fill="white"/>
<path d="M787.719 336.462L776.664 329.991V342.934L787.719 336.462Z" fill="white"/>
<path d="M795.403 346.034L781.113 354.258L795.403 362.616V346.034Z" fill="white"/>
<path d="M824.119 389.983L804.705 378.794V401.173L824.119 389.983Z" fill="white"/>
<path d="M828.568 395.51L807.402 407.778L828.568 419.912V395.51Z" fill="white"/>
<path d="M825.332 507.946L813.738 514.687L825.332 521.427V507.946Z" fill="white"/>
<path d="M816.839 532.482L808.346 527.629V537.47L816.839 532.482Z" fill="white"/>
<path d="M791.899 566.05L788.124 568.207L791.899 570.364V566.05Z" fill="white"/>
<path d="M781.653 586.004L779.631 584.79V587.217L781.653 586.004Z" fill="white"/>
<path d="M286.479 -55.7128H286.345V-55.578L286.479 -55.7128Z" fill="white"/>
<path d="M327.733 -55.9824L327.194 -55.7128L327.733 -55.4431V-55.9824Z" fill="white"/>
<path d="M348.629 -55.7126L347.82 -56.117V-55.3081L348.629 -55.7126Z" fill="white"/>
<path d="M389.613 -56.2516L388.535 -55.7123L389.613 -55.0383V-56.2516Z" fill="white"/>
<path d="M410.779 -55.7132L409.431 -56.3873V-54.9043L410.779 -55.7132Z" fill="white"/>
<path d="M451.627 -56.6558L449.874 -55.7121L451.627 -54.7684V-56.6558Z" fill="white"/>
<path d="M472.928 -55.7129L470.906 -56.7914V-54.6344L472.928 -55.7129Z" fill="white"/>
<path d="M513.507 -57.0606L511.215 -55.7125L513.507 -54.3644V-57.0606Z" fill="white"/>
<path d="M534.943 -55.7125L532.516 -57.0606V-54.2296L534.943 -55.7125Z" fill="white"/>
<path d="M575.387 -57.3299L572.69 -55.7121L575.387 -54.0943V-57.3299Z" fill="white"/>
<path d="M597.093 -19.9866L594.127 -21.874V-18.234L597.093 -19.9866Z" fill="white"/>
<path d="M606.529 -4.07878L603.158 -2.19138L606.529 -0.303978V-4.07878Z" fill="white"/>
<path d="M628.369 33.3995L624.729 31.2425V35.5565L628.369 33.3995Z" fill="white"/>
<path d="M637.537 49.1734L633.762 51.1956L637.537 53.3526V49.1734Z" fill="white"/>
<path d="M658.971 86.9208L655.736 85.0334V88.8082L658.971 86.9208Z" fill="white"/>
<path d="M668.139 103.099L665.173 104.717L668.139 106.469V103.099Z" fill="white"/>
<path d="M688.9 140.443L687.012 139.229V141.521L688.9 140.443Z" fill="white"/>
<path d="M698.472 157.428L697.124 158.237L698.472 158.911V157.428Z" fill="white"/>
<path d="M718.695 193.828L718.56 193.693V193.963L718.695 193.828Z" fill="white"/>
<path d="M728.94 211.624H728.806L728.94 211.759V211.624Z" fill="white"/>
<path d="M749.971 247.35L749.163 246.811V247.754L749.971 247.35Z" fill="white"/>
<path d="M760.352 264.067L758.465 265.146L760.352 266.225V264.067Z" fill="white"/>
<path d="M783.945 300.737L778.552 297.636V303.972L783.945 300.737Z" fill="white"/>
<path d="M793.247 314.083L785.428 318.667L793.247 323.116V314.083Z" fill="white"/>
<path d="M820.884 354.257L806.324 345.898V362.75L820.884 354.257Z" fill="white"/>
<path d="M827.355 361.942L809.694 372.053L827.355 382.299V361.942Z" fill="white"/>
<path d="M823.445 546.907L817.513 550.413L823.445 553.783V546.907Z" fill="white"/>
<path d="M813.738 568.208L809.963 565.916V570.365L813.738 568.208Z" fill="white"/>
<path d="M790.82 603.394L790.146 603.798L790.82 604.203V603.394Z" fill="white"/>
<path d="M296.726 -73.643L296.457 -73.5082L296.726 -73.3734V-73.643Z" fill="white"/>
<path d="M317.488 -73.508L317.083 -73.7776V-73.2384L317.488 -73.508Z" fill="white"/>
<path d="M358.605 -73.9122L357.931 -73.5078L358.605 -73.1033V-73.9122Z" fill="white"/>
<path d="M379.636 -73.5086L378.692 -74.0479V-72.9694L379.636 -73.5086Z" fill="white"/>
<path d="M420.62 -74.3171L419.137 -73.5082L420.62 -72.6993V-74.3171Z" fill="white"/>
<path d="M441.786 -73.5084L440.168 -74.4521V-72.5647L441.786 -73.5084Z" fill="white"/>
<path d="M482.5 -74.5867L480.613 -73.5082L482.5 -72.4296V-74.5867Z" fill="white"/>
<path d="M503.935 -73.5079L501.777 -74.7213V-72.2946L503.935 -73.5079Z" fill="white"/>
<path d="M544.515 -74.9905L541.953 -73.5075L544.515 -72.0246V-74.9905Z" fill="white"/>
<path d="M565.95 -73.5084L563.253 -75.1262V-71.8906L565.95 -73.5084Z" fill="white"/>
<path d="M596.958 -55.7121L594.127 -57.3299V-54.0943L596.958 -55.7121Z" fill="white"/>
<path d="M606.394 -39.6703L603.428 -37.9177L606.394 -36.1651V-39.6703Z" fill="white"/>
<path d="M628.234 -2.19138L624.864 -4.07878V-0.303978L628.234 -2.19138Z" fill="white"/>
<path d="M637.402 13.5818L633.897 15.6041L637.402 17.6263V13.5818Z" fill="white"/>
<path d="M659.241 51.1956L655.601 49.1734V53.3526L659.241 51.1956Z" fill="white"/>
<path d="M668.139 67.2382L664.903 69.1255L668.139 71.013V67.2382Z" fill="white"/>
<path d="M689.305 104.716L686.878 103.368V106.199L689.305 104.716Z" fill="white"/>
<path d="M698.607 121.433L696.72 122.511L698.607 123.59V121.433Z" fill="white"/>
<path d="M719.1 158.238L718.291 157.833V158.642L719.1 158.238Z" fill="white"/>
<path d="M728.94 175.899L728.671 176.034L728.94 176.169V175.899Z" fill="white"/>
<path d="M781.518 265.146L779.766 264.202V266.089L781.518 265.146Z" fill="white"/>
<path d="M791.629 281.188L788.528 282.941L791.629 284.828V281.188Z" fill="white"/>
<path d="M816.434 318.667L808.615 314.083V323.251L816.434 318.667Z" fill="white"/>
<path d="M825.332 329.856L813.873 336.462L825.332 343.067V329.856Z" fill="white"/>
<path d="M822.232 584.655L819.94 586.003L822.232 587.216V584.655Z" fill="white"/>
<path d="M811.716 603.799L810.908 603.26V604.339L811.716 603.799Z" fill="white"/>
<path d="M286.479 -91.3034L286.345 -91.4382V-91.3034H286.479Z" fill="white"/>
<path d="M327.733 -91.7075L327.194 -91.303L327.733 -91.0334V-91.7075Z" fill="white"/>
<path d="M348.629 -91.303L347.82 -91.7075V-90.8986L348.629 -91.303Z" fill="white"/>
<path d="M389.613 -91.9777L388.535 -91.3037L389.613 -90.6296V-91.9777Z" fill="white"/>
<path d="M410.779 -91.3034L409.431 -92.1123V-90.6294L410.779 -91.3034Z" fill="white"/>
<path d="M451.493 -92.2473L449.875 -91.3036L451.493 -90.3599V-92.2473Z" fill="white"/>
<path d="M472.928 -91.3032L470.906 -92.5165V-90.2247L472.928 -91.3032Z" fill="white"/>
<path d="M513.507 -92.6522L511.215 -91.304L513.507 -90.0907V-92.6522Z" fill="white"/>
<path d="M534.943 -91.304L532.516 -92.6522V-89.9559L534.943 -91.304Z" fill="white"/>
<path d="M575.387 -92.9214L572.69 -91.3036L575.387 -89.8207V-92.9214Z" fill="white"/>
<path d="M596.958 -91.3038L594.127 -93.0563V-89.686L596.958 -91.3038Z" fill="white"/>
<path d="M606.394 -75.2608L603.428 -73.5082L606.394 -71.7556V-75.2608Z" fill="white"/>
<path d="M628.099 -37.9177L624.864 -39.6703V-36.0303L628.099 -37.9177Z" fill="white"/>
<path d="M637.267 -21.874L634.166 -19.9866L637.267 -18.234V-21.874Z" fill="white"/>
<path d="M659.106 15.6039L655.736 13.7164V17.4912L659.106 15.6039Z" fill="white"/>
<path d="M668.274 31.3771L664.768 33.3993L668.274 35.4215V31.3771Z" fill="white"/>
<path d="M689.71 69.1254L686.744 67.3728V70.8779L689.71 69.1254Z" fill="white"/>
<path d="M698.877 85.4383L696.315 86.9212L698.877 88.4042V85.4383Z" fill="white"/>
<path d="M719.638 122.512L718.02 121.703V123.456L719.638 122.512Z" fill="white"/>
<path d="M729.21 139.768L728.267 140.442L729.21 140.981V139.768Z" fill="white"/>
<path d="M790.685 247.215L790.416 247.35L790.685 247.484V247.215Z" fill="white"/>
<path d="M813.2 282.941L810.234 281.188V284.693L813.2 282.941Z" fill="white"/>
<path d="M823.175 297.771L818.052 300.737L823.175 303.837V297.771Z" fill="white"/>
<path d="M628.099 -73.5083L624.864 -75.3957V-71.6209L628.099 -73.5083Z" fill="white"/>
<path d="M637.267 -57.4645L634.166 -55.7119L637.267 -53.8245V-57.4645Z" fill="white"/>
<path d="M659.106 -19.9864L655.736 -22.0086V-18.099L659.106 -19.9864Z" fill="white"/>
<path d="M668.274 -4.21339L664.903 -2.19117L668.274 -0.303772V-4.21339Z" fill="white"/>
<path d="M689.979 33.4001L686.609 31.5127V35.4224L689.979 33.4001Z" fill="white"/>
<path d="M699.012 49.4426L695.911 51.1952L699.012 53.0826V49.4426Z" fill="white"/>
<path d="M720.178 86.921L717.751 85.5729V88.2691L720.178 86.921Z" fill="white"/>
<path d="M729.48 103.638L727.593 104.716L729.48 105.795V103.638Z" fill="white"/>
<path d="M749.971 140.442L749.163 139.903V140.846L749.971 140.442Z" fill="white"/>
<path d="M759.814 157.968L759.544 158.238L759.814 158.373V157.968Z" fill="white"/>
<path d="M811.312 247.35L811.177 247.215V247.484L811.312 247.35Z" fill="white"/>
<path d="M821.962 264.336L820.614 265.145L821.962 265.953V264.336Z" fill="white"/>
<path d="M637.267 -93.1909L634.166 -91.3035L637.267 -89.4161V-93.1909Z" fill="white"/>
<path d="M659.106 -55.7127L655.736 -57.6001V-53.8253L659.106 -55.7127Z" fill="white"/>
<path d="M668.274 -39.8038L664.903 -37.9164L668.274 -35.8942V-39.8038Z" fill="white"/>
<path d="M689.979 -2.19117L686.609 -4.21339V-0.168953L689.979 -2.19117Z" fill="white"/>
<path d="M699.147 13.7164L695.776 15.6039L699.147 17.4912V13.7164Z" fill="white"/>
<path d="M720.581 51.1953L717.615 49.5775V52.9479L720.581 51.1953Z" fill="white"/>
<path d="M729.749 67.5074L727.052 69.1251L729.749 70.6081V67.5074Z" fill="white"/>
<path d="M750.645 104.716L748.892 103.638V105.795L750.645 104.716Z" fill="white"/>
<path d="M760.217 121.838L758.869 122.512L760.217 123.321V121.838Z" fill="white"/>
<path d="M780.573 158.238L780.169 157.968V158.373L780.573 158.238Z" fill="white"/>
<path d="M659.106 -91.3033L655.736 -93.3256V-89.4159L659.106 -91.3033Z" fill="white"/>
<path d="M668.274 -75.5303L664.768 -73.5081L668.274 -71.4859V-75.5303Z" fill="white"/>
<path d="M689.979 -37.9173L686.609 -39.9395V-35.8951L689.979 -37.9173Z" fill="white"/>
<path d="M699.147 -22.0086L695.642 -19.9864L699.147 -17.9642V-22.0086Z" fill="white"/>
<path d="M720.851 15.6039L717.481 13.7164V17.4912L720.851 15.6039Z" fill="white"/>
<path d="M729.884 31.5127L726.648 33.4001L729.884 35.2876V31.5127Z" fill="white"/>
<path d="M751.185 69.1249L748.623 67.642V70.6079L751.185 69.1249Z" fill="white"/>
<path d="M760.487 85.5729L758.195 86.921L760.487 88.2691V85.5729Z" fill="white"/>
<path d="M781.248 122.512L779.9 121.838V123.321L781.248 122.512Z" fill="white"/>
<path d="M790.955 139.903L790.012 140.442L790.955 140.846V139.903Z" fill="white"/>
<path d="M690.114 -73.5079L686.474 -75.6649V-71.3509L690.114 -73.5079Z" fill="white"/>
<path d="M699.282 -57.7351L695.507 -55.7129L699.282 -53.5559V-57.7351Z" fill="white"/>
<path d="M720.986 -19.9873L717.346 -22.1443V-17.965L720.986 -19.9873Z" fill="white"/>
<path d="M730.019 -4.21339L726.513 -2.19117L730.019 -0.168953V-4.21339Z" fill="white"/>
<path d="M751.724 33.4001L748.354 31.5127V35.4224L751.724 33.4001Z" fill="white"/>
<path d="M760.757 49.4426L757.656 51.1952L760.757 52.9477V49.4426Z" fill="white"/>
<path d="M781.922 86.921L779.495 85.5729V88.2691L781.922 86.921Z" fill="white"/>
<path d="M791.225 103.638L789.338 104.716L791.225 105.795V103.638Z" fill="white"/>
<path d="M811.851 140.442L810.908 139.903V140.846L811.851 140.442Z" fill="white"/>
<path d="M821.692 157.968L821.153 158.238L821.692 158.507V157.968Z" fill="white"/>
<path d="M699.282 -93.4612L695.507 -91.3042L699.282 -89.1472V-93.4612Z" fill="white"/>
<path d="M721.121 -55.7127L717.346 -57.8697V-53.5556L721.121 -55.7127Z" fill="white"/>
<path d="M730.154 -40.0745L726.379 -37.9174L730.154 -35.6256V-40.0745Z" fill="white"/>
<path d="M751.859 -2.19096L748.219 -4.34799V-0.168747L751.859 -2.19096Z" fill="white"/>
<path d="M760.892 13.5818L757.387 15.6041L760.892 17.6263V13.5818Z" fill="white"/>
<path d="M782.461 51.1952L779.226 49.4426V53.0826L782.461 51.1952Z" fill="white"/>
<path d="M791.629 67.3728L788.663 69.1254L791.629 70.7431V67.3728Z" fill="white"/>
<path d="M812.66 104.716L810.503 103.503V105.93L812.66 104.716Z" fill="white"/>
<path d="M821.962 121.703L820.479 122.512L821.962 123.456V121.703Z" fill="white"/>
<path d="M721.121 -91.304L717.346 -93.5958V-89.147L721.121 -91.304Z" fill="white"/>
<path d="M730.154 -75.7995L726.244 -73.5077L730.154 -71.2159V-75.7995Z" fill="white"/>
<path d="M752.128 -37.9172L748.084 -40.2091V-35.6254L752.128 -37.9172Z" fill="white"/>
<path d="M761.025 -22.2782L757.251 -19.9863L761.025 -17.8293V-22.2782Z" fill="white"/>
<path d="M782.731 15.6043L779.091 13.4472V17.7613L782.731 15.6043Z" fill="white"/>
<path d="M791.764 31.3771L788.258 33.3993L791.764 35.4215V31.3771Z" fill="white"/>
<path d="M813.065 69.1254L810.234 67.3728V70.7431L813.065 69.1254Z" fill="white"/>
<path d="M822.367 85.4383L819.806 86.9212L822.367 88.4042V85.4383Z" fill="white"/>
<path d="M752.263 -73.5086L748.084 -75.9352V-71.0819L752.263 -73.5086Z" fill="white"/>
<path d="M761.162 -58.1389L756.983 -55.7123L761.162 -53.2856V-58.1389Z" fill="white"/>
<path d="M783.001 -19.9863L778.957 -22.2782V-17.6945L783.001 -19.9863Z" fill="white"/>
<path d="M791.899 -4.48367L787.989 -2.19183L791.899 0.100021V-4.48367Z" fill="white"/>
<path d="M813.603 33.3993L809.963 31.3771V35.5563L813.603 33.3993Z" fill="white"/>
<path d="M822.635 49.3069L819.265 51.1943L822.635 53.2165V49.3069Z" fill="white"/>
<path d="M761.162 -93.7294L756.983 -91.3027L761.162 -89.0109V-93.7294Z" fill="white"/>
<path d="M783.136 -55.7123L778.957 -58.1389V-53.2856L783.136 -55.7123Z" fill="white"/>
<path d="M792.034 -40.3437L787.854 -37.917L792.034 -35.4904V-40.3437Z" fill="white"/>
<path d="M813.873 -2.19183L809.829 -4.48367V0.100021L813.873 -2.19183Z" fill="white"/>
<path d="M822.77 13.3126L818.861 15.6045L822.77 17.8963V13.3126Z" fill="white"/>
<path d="M783.136 -91.3036L778.957 -93.865V-88.8769L783.136 -91.3036Z" fill="white"/>
<path d="M792.034 -76.0698L787.72 -73.5083L792.034 -70.9469V-76.0698Z" fill="white"/>
<path d="M814.008 -37.917L809.829 -40.3437V-35.3556L814.008 -37.917Z" fill="white"/>
<path d="M822.905 -22.5485L818.591 -19.987L822.905 -17.5603V-22.5485Z" fill="white"/>
<path d="M814.143 -73.5083L809.694 -76.0698V-70.9469L814.143 -73.5083Z" fill="white"/>
<path d="M823.04 -58.2735L818.457 -55.712L823.04 -53.1506V-58.2735Z" fill="white"/>
<path d="M823.04 -94L818.457 -91.3037L823.04 -88.7422V-94Z" fill="white"/>
<path d="M332.183 658.937L332.048 658.803V659.072L332.183 658.937Z" fill="white"/>
<path d="M311.555 658.668L311.151 658.938L311.555 659.207V658.668Z" fill="white"/>
<path d="M301.444 641.142L301.04 640.872V641.277L301.444 641.142Z" fill="white"/>
<path d="M280.683 605.282L280.414 605.417L280.683 605.552V605.282Z" fill="white"/>
<path d="M270.438 587.621H270.303V587.756L270.438 587.621Z" fill="white"/>
<path d="M342.427 676.734H342.292L342.427 676.868V676.734Z" fill="white"/>
<path d="M301.579 676.733L300.905 676.329V677.138L301.579 676.733Z" fill="white"/>
<path d="M280.818 640.738L280.144 641.142L280.818 641.412V640.738Z" fill="white"/>
<path d="M270.706 623.346L270.167 622.942V623.616L270.706 623.346Z" fill="white"/>
<path d="M249.81 587.351L249.405 587.621L249.81 587.89V587.351Z" fill="white"/>
<path d="M239.699 569.825L239.295 569.69V569.96L239.699 569.825Z" fill="white"/>
<path d="M218.938 534.1H218.803L218.938 534.235V534.1Z" fill="white"/>
<path d="M208.692 516.305H208.558V516.44L208.692 516.305Z" fill="white"/>
<path d="M332.318 694.528L331.913 694.393V694.797L332.318 694.528Z" fill="white"/>
<path d="M311.69 694.125L311.016 694.529L311.69 694.934V694.125Z" fill="white"/>
<path d="M280.953 676.194L279.875 676.733L280.953 677.272V676.194Z" fill="white"/>
<path d="M270.976 658.938L270.032 658.398V659.477L270.976 658.938Z" fill="white"/>
<path d="M249.945 622.808L249.136 623.347L249.945 623.752V622.808Z" fill="white"/>
<path d="M239.969 605.416L239.16 605.012V605.955L239.969 605.416Z" fill="white"/>
<path d="M219.073 569.421L218.534 569.826L219.073 570.095V569.421Z" fill="white"/>
<path d="M208.961 552.03L208.422 551.626V552.3L208.961 552.03Z" fill="white"/>
<path d="M188.065 516.17L187.795 516.305L188.065 516.574V516.17Z" fill="white"/>
<path d="M177.819 498.508L177.55 498.374V498.643L177.819 498.508Z" fill="white"/>
<path d="M157.193 462.783L157.058 462.918H157.193V462.783Z" fill="white"/>
<path d="M363.054 712.459L362.92 712.324V712.459H363.054Z" fill="white"/>
<path d="M342.427 712.189L342.022 712.459L342.427 712.594V712.189Z" fill="white"/>
<path d="M301.849 712.46L300.906 711.786V712.999L301.849 712.46Z" fill="white"/>
<path d="M280.953 711.651L279.74 712.46L280.953 713.134V711.651Z" fill="white"/>
<path d="M271.111 694.528L269.898 693.854V695.337L271.111 694.528Z" fill="white"/>
<path d="M250.08 658.264L248.867 658.938L250.08 659.612V658.264Z" fill="white"/>
<path d="M240.239 641.142L239.026 640.468V641.816L240.239 641.142Z" fill="white"/>
<path d="M219.208 604.877L218.13 605.416L219.208 606.09V604.877Z" fill="white"/>
<path d="M209.232 587.621L208.154 587.082V588.16L209.232 587.621Z" fill="white"/>
<path d="M188.2 551.49L187.526 552.03L188.2 552.434V551.49Z" fill="white"/>
<path d="M178.089 534.1L177.415 533.696V534.505L178.089 534.1Z" fill="white"/>
<path d="M157.328 498.239L156.789 498.509L157.328 498.778V498.239Z" fill="white"/>
<path d="M147.082 480.713L146.678 480.444V480.983L147.082 480.713Z" fill="white"/>
<path d="M126.321 444.853L126.052 444.988L126.321 445.123V444.853Z" fill="white"/>
<path d="M116.074 427.193H115.939V427.327L116.074 427.193Z" fill="white"/>
<path d="M250.215 693.72L248.732 694.529L250.215 695.472V693.72Z" fill="white"/>
<path d="M240.509 676.734L238.891 675.79V677.677L240.509 676.734Z" fill="white"/>
<path d="M219.343 640.334L217.86 641.143L219.343 641.952V640.334Z" fill="white"/>
<path d="M209.501 623.347L208.018 622.403V624.156L209.501 623.347Z" fill="white"/>
<path d="M188.335 586.947L187.121 587.621L188.335 588.43V586.947Z" fill="white"/>
<path d="M178.494 569.825L177.281 569.151V570.499L178.494 569.825Z" fill="white"/>
<path d="M157.463 533.56L156.384 534.099L157.463 534.773V533.56Z" fill="white"/>
<path d="M147.352 516.304L146.543 515.9V516.843L147.352 516.304Z" fill="white"/>
<path d="M126.455 480.309L125.781 480.714L126.455 481.118V480.309Z" fill="white"/>
<path d="M116.344 462.917L115.805 462.513V463.187L116.344 462.917Z" fill="white"/>
<path d="M95.448 427.057L95.1784 427.192L95.448 427.461V427.057Z" fill="white"/>
<path d="M85.2024 409.397L84.9328 409.262V409.531L85.2024 409.397Z" fill="white"/>
<path d="M240.643 712.459L238.755 711.38V713.537L240.643 712.459Z" fill="white"/>
<path d="M219.477 675.654L217.589 676.733L219.477 677.811V675.654Z" fill="white"/>
<path d="M209.771 658.938L208.018 657.86V660.017L209.771 658.938Z" fill="white"/>
<path d="M188.605 622.268L186.852 623.347L188.605 624.29V622.268Z" fill="white"/>
<path d="M178.764 605.417L177.146 604.473V606.36L178.764 605.417Z" fill="white"/>
<path d="M157.598 569.016L156.115 569.825L157.598 570.634V569.016Z" fill="white"/>
<path d="M147.621 552.03L146.407 551.221V552.704L147.621 552.03Z" fill="white"/>
<path d="M126.59 515.63L125.511 516.304L126.59 516.978V515.63Z" fill="white"/>
<path d="M116.614 498.509L115.67 497.97V499.048L116.614 498.509Z" fill="white"/>
<path d="M95.583 462.379L94.7741 462.919L95.583 463.323V462.379Z" fill="white"/>
<path d="M85.4723 444.987L84.7982 444.583V445.392L85.4723 444.987Z" fill="white"/>
<path d="M64.5762 409.127L64.1718 409.397L64.5762 409.666V409.127Z" fill="white"/>
<path d="M54.3306 391.601L54.0609 391.466V391.736L54.3306 391.601Z" fill="white"/>
<path d="M219.613 711.111L217.321 712.459L219.613 713.673V711.111Z" fill="white"/>
<path d="M210.041 694.529L207.884 693.316V695.877L210.041 694.529Z" fill="white"/>
<path d="M188.605 657.724L186.582 658.937L188.605 660.151V657.724Z" fill="white"/>
<path d="M179.032 641.142L177.01 639.929V642.355L179.032 641.142Z" fill="white"/>
<path d="M157.733 604.338L155.845 605.417L157.733 606.495V604.338Z" fill="white"/>
<path d="M148.026 587.621L146.273 586.542V588.699L148.026 587.621Z" fill="white"/>
<path d="M126.725 551.086L125.107 552.03L126.725 552.839V551.086Z" fill="white"/>
<path d="M116.884 534.1L115.401 533.291V535.044L116.884 534.1Z" fill="white"/>
<path d="M95.7179 497.835L94.5045 498.509L95.7179 499.318V497.835Z" fill="white"/>
<path d="M85.8757 480.713L84.6625 480.039V481.387L85.8757 480.713Z" fill="white"/>
<path d="M64.7097 444.583L63.9008 444.987L64.7097 445.527V444.583Z" fill="white"/>
<path d="M54.5991 427.192L53.925 426.788V427.597L54.5991 427.192Z" fill="white"/>
<path d="M188.74 693.18L186.313 694.528L188.74 696.011V693.18Z" fill="white"/>
<path d="M179.302 676.733L176.876 675.25V678.216L179.302 676.733Z" fill="white"/>
<path d="M157.866 639.794L155.575 641.142L157.866 642.49V639.794Z" fill="white"/>
<path d="M148.296 623.347L146.004 621.999V624.56L148.296 623.347Z" fill="white"/>
<path d="M126.86 586.409L124.837 587.622L126.86 588.835V586.409Z" fill="white"/>
<path d="M117.289 569.825L115.267 568.747V570.904L117.289 569.825Z" fill="white"/>
<path d="M95.9878 533.156L94.2352 534.1L95.9878 535.179V533.156Z" fill="white"/>
<path d="M86.1457 516.305L84.5279 515.361V517.249L86.1457 516.305Z" fill="white"/>
<path d="M64.8461 479.905L63.6327 480.714L64.8461 481.388V479.905Z" fill="white"/>
<path d="M55.0039 462.918L53.7906 462.244V463.457L55.0039 462.918Z" fill="white"/>
<path d="M179.572 712.459L176.741 710.841V714.076L179.572 712.459Z" fill="white"/>
<path d="M158.003 675.115L155.172 676.733L158.003 678.351V675.115Z" fill="white"/>
<path d="M148.566 658.938L145.869 657.32V660.556L148.566 658.938Z" fill="white"/>
<path d="M127.13 621.863L124.568 623.346L127.13 624.829V621.863Z" fill="white"/>
<path d="M117.557 605.416L115.131 604.068V606.899L117.557 605.416Z" fill="white"/>
<path d="M96.1228 568.612L93.831 569.826L96.1228 571.039V568.612Z" fill="white"/>
<path d="M86.4156 552.03L84.3934 550.817V553.244L86.4156 552.03Z" fill="white"/>
<path d="M65.1146 515.361L63.2271 516.305L65.1146 517.383V515.361Z" fill="white"/>
<path d="M55.2739 498.509L53.6561 497.565V499.452L55.2739 498.509Z" fill="white"/>
<path d="M158.136 710.571L155.036 712.459L158.136 714.211V710.571Z" fill="white"/>
<path d="M148.834 694.529L145.733 692.776V696.416L148.834 694.529Z" fill="white"/>
<path d="M127.265 657.186L124.164 658.938L127.265 660.691V657.186Z" fill="white"/>
<path d="M117.962 641.142L114.996 639.389V642.76L117.962 641.142Z" fill="white"/>
<path d="M96.2578 603.933L93.5615 605.416L96.2578 607.034V603.933Z" fill="white"/>
<path d="M86.8205 587.621L84.2591 586.138V589.104L86.8205 587.621Z" fill="white"/>
<path d="M65.2496 550.682L62.9577 552.03L65.2496 553.378V550.682Z" fill="white"/>
<path d="M55.5438 534.099L53.5216 532.886V535.313L55.5438 534.099Z" fill="white"/>
<path d="M127.399 692.641L124.029 694.529L127.399 696.551V692.641Z" fill="white"/>
<path d="M118.097 676.733L114.862 674.845V678.62L118.097 676.733Z" fill="white"/>
<path d="M96.3927 639.255L93.2919 641.142L96.3927 642.895V639.255Z" fill="white"/>
<path d="M87.0904 623.347L83.9897 621.594V625.099L87.0904 623.347Z" fill="white"/>
<path d="M65.3845 586.003L62.5534 587.621L65.3845 589.239V586.003Z" fill="white"/>
<path d="M55.9472 569.826L53.2509 568.343V571.309L55.9472 569.826Z" fill="white"/>
<path d="M118.367 712.459L114.727 710.302V714.481L118.367 712.459Z" fill="white"/>
<path d="M96.5263 674.711L92.8863 676.733L96.5263 678.89V674.711Z" fill="white"/>
<path d="M87.3589 658.938L83.8537 656.915V660.96L87.3589 658.938Z" fill="white"/>
<path d="M65.6544 621.325L62.2841 623.347L65.6544 625.234V621.325Z" fill="white"/>
<path d="M56.3521 605.416L53.1166 603.664V607.304L56.3521 605.416Z" fill="white"/>
<path d="M96.6612 710.167L92.7516 712.459L96.6612 714.751V710.167Z" fill="white"/>
<path d="M87.7638 694.529L83.7194 692.237V696.821L87.7638 694.529Z" fill="white"/>
<path d="M65.7894 656.781L62.0146 658.938L65.7894 661.095V656.781Z" fill="white"/>
<path d="M56.622 641.142L52.982 638.985V643.164L56.622 641.142Z" fill="white"/>
<path d="M65.7894 692.237L61.745 694.529L65.7894 696.956V692.237Z" fill="white"/>
<path d="M56.892 676.733L52.8476 674.441V679.16L56.892 676.733Z" fill="white"/>
<path d="M57.1605 712.458L52.7116 709.897V715.02L57.1605 712.458Z" fill="white"/>
</g>
</svg>
