<svg width="459" height="837" viewBox="0 0 459 837" fill="none" xmlns="http://www.w3.org/2000/svg">
<g opacity="0.3">
<path d="M0.00074707 378.061L33.4609 358.876L0.00074707 339.314V378.061Z" fill="white"/>
<path d="M9.39938 398.374L46.6191 419.816V376.932L9.39938 398.374Z" fill="white"/>
<path d="M0.00074707 457.435L33.4609 438.25L0.00074707 419.064V457.435Z" fill="white"/>
<path d="M2.25629 294.925L29.7012 279.126L2.25629 263.326V294.925Z" fill="white"/>
<path d="M12.031 319.001L45.4912 338.186V299.815L12.031 319.001Z" fill="white"/>
<path d="M65.0404 424.331L110.155 398.374L65.0404 372.418V424.331Z" fill="white"/>
<path d="M12.407 478.125L45.1152 496.934V458.939L12.407 478.125Z" fill="white"/>
<path d="M1.88037 534.176L30.0771 518L1.88037 501.824V534.176Z" fill="white"/>
<path d="M4.51179 211.413L24.8135 199.375L4.51179 187.714V211.413Z" fill="white"/>
<path d="M17.6702 239.25L42.4834 253.921V224.955L17.6702 239.25Z" fill="white"/>
<path d="M66.921 341.948L106.772 319.001L66.921 296.054V341.948Z" fill="white"/>
<path d="M71.8081 358.875L118.803 385.96V331.414L71.8081 358.875Z" fill="white"/>
<path d="M71.0562 438.249L119.179 466.087V410.412L71.0562 438.249Z" fill="white"/>
<path d="M66.921 501.072L106.396 478.125L66.921 455.178V501.072Z" fill="white"/>
<path d="M16.9183 557.498L42.8594 572.545V542.827L16.9183 557.498Z" fill="white"/>
<path d="M4.13588 610.163L25.9414 597.373L4.13588 584.959V610.163Z" fill="white"/>
<path d="M7.51916 126.772L19.1738 120.001L7.51916 113.23V126.772Z" fill="white"/>
<path d="M23.6854 159.876L39.4756 168.904V150.472L23.6854 159.876Z" fill="white"/>
<path d="M71.0561 255.05L98.125 239.251L71.0561 223.827V255.05Z" fill="white"/>
<path d="M79.327 279.125L115.043 299.815V258.436L79.327 279.125Z" fill="white"/>
<path d="M131.962 388.594L183.468 358.876L131.962 328.781V388.594Z" fill="white"/>
<path d="M133.841 398.374L190.986 431.854V365.271L133.841 398.374Z" fill="white"/>
<path d="M130.457 470.601L186.099 438.25L130.457 406.274V470.601Z" fill="white"/>
<path d="M77.4473 517.999L115.795 540.194V495.805L77.4473 517.999Z" fill="white"/>
<path d="M70.6802 574.426L99.6289 557.498L70.6802 540.946V574.426Z" fill="white"/>
<path d="M22.5576 637.249L40.2275 647.406V627.092L22.5576 637.249Z" fill="white"/>
<path d="M6.39138 685.4L21.0537 677.124L6.39138 668.848V685.4Z" fill="white"/>
<path d="M30.0765 80.1263L36.4678 83.8881V76.7407L30.0765 80.1263Z" fill="white"/>
<path d="M75.1922 168.529L90.2305 159.877L75.1922 151.225V168.529Z" fill="white"/>
<path d="M89.4776 199.375L110.155 211.413V187.714L89.4776 199.375Z" fill="white"/>
<path d="M136.849 300.192L173.692 279.126L136.849 258.06V300.192Z" fill="white"/>
<path d="M142.112 319L186.851 344.957V293.044L142.112 319Z" fill="white"/>
<path d="M198.882 431.478L256.027 398.374L198.882 365.646V431.478Z" fill="white"/>
<path d="M134.969 478.125L190.61 510.1V446.149L134.969 478.125Z" fill="white"/>
<path d="M133.465 544.708L180.084 517.999L133.465 490.914V544.708Z" fill="white"/>
<path d="M85.7182 597.373L112.035 612.421V582.326L85.7182 597.373Z" fill="white"/>
<path d="M74.0634 647.782L92.4854 637.249L74.0634 626.716V647.782Z" fill="white"/>
<path d="M27.4449 716.998L37.5957 722.641V710.979L27.4449 716.998Z" fill="white"/>
<path d="M9.02283 760.26L15.79 756.498L9.02283 752.736V760.26Z" fill="white"/>
<path d="M78.5755 83.1359L83.4629 80.1264L78.5755 77.4932V83.1359Z" fill="white"/>
<path d="M97.3735 120.002L106.021 124.892V115.111L97.3735 120.002Z" fill="white"/>
<path d="M142.864 210.284L161.662 199.375L142.864 188.842V210.284Z" fill="white"/>
<path d="M154.519 239.25L180.836 254.674V224.203L154.519 239.25Z" fill="white"/>
<path d="M203.769 343.452L246.252 319.001L203.769 294.549V343.452Z" fill="white"/>
<path d="M208.657 358.875L256.779 386.713V331.038L208.657 358.875Z" fill="white"/>
<path d="M201.514 438.25L260.539 472.482V404.018L201.514 438.25Z" fill="white"/>
<path d="M198.13 511.981L257.155 478.125L198.13 443.893V511.981Z" fill="white"/>
<path d="M143.24 557.499L186.475 582.703V532.671L143.24 557.499Z" fill="white"/>
<path d="M138.352 615.806L170.309 597.373L138.352 578.94V615.806Z" fill="white"/>
<path d="M93.614 677.124L107.9 685.023V668.848L93.614 677.124Z" fill="white"/>
<path d="M77.4477 721.889L86.0947 716.999L77.4477 711.732V721.889Z" fill="white"/>
<path d="M32.3322 796.373L34.9639 797.878V794.868L32.3322 796.373Z" fill="white"/>
<path d="M10.9034 837L12.0312 836.247L10.9034 835.495V837Z" fill="white"/>
<path d="M146.999 123.763L153.391 120.001L146.999 116.239V123.763Z" fill="white"/>
<path d="M164.67 159.877L175.572 165.895V153.481L164.67 159.877Z" fill="white"/>
<path d="M210.536 252.04L232.718 239.25L210.536 226.46V252.04Z" fill="white"/>
<path d="M221.439 279.125L250.388 295.677V262.573L221.439 279.125Z" fill="white"/>
<path d="M273.697 381.446L313.173 358.876L273.697 335.929V381.446Z" fill="white"/>
<path d="M281.216 398.375L324.075 423.202V373.923L281.216 398.375Z" fill="white"/>
<path d="M268.809 469.848L322.947 438.249L268.809 407.026V469.848Z" fill="white"/>
<path d="M203.394 517.999L259.787 550.351V485.271L203.394 517.999Z" fill="white"/>
<path d="M201.889 585.336L250.012 557.498L201.889 530.037V585.336Z" fill="white"/>
<path d="M154.895 637.249L180.46 651.92V622.578L154.895 637.249Z" fill="white"/>
<path d="M143.616 686.152L159.782 677.123L143.616 667.719V686.152Z" fill="white"/>
<path d="M100.381 756.497L104.517 759.131V754.24L100.381 756.497Z" fill="white"/>
<path d="M79.7032 797.501L81.207 796.373L79.7032 795.244V797.501Z" fill="white"/>
<path d="M170.309 80.1263L172.94 81.631V78.6216L170.309 80.1263Z" fill="white"/>
<path d="M215.423 164.391L223.318 159.876L215.423 155.362V164.391Z" fill="white"/>
<path d="M233.469 199.376L244.748 206.147V192.98L233.469 199.376Z" fill="white"/>
<path d="M279.712 291.54L300.766 279.126L279.712 267.088V291.54Z" fill="white"/>
<path d="M293.246 319.001L318.06 333.296V304.33L293.246 319.001Z" fill="white"/>
<path d="M344.753 417.183L377.461 398.374L344.753 379.941V417.183Z" fill="white"/>
<path d="M273.697 478.124L327.835 509.347V446.525L273.697 478.124Z" fill="white"/>
<path d="M267.682 550.727L324.827 517.999L267.682 484.896V550.727Z" fill="white"/>
<path d="M213.168 597.373L254.899 621.449V573.298L213.168 597.373Z" fill="white"/>
<path d="M208.281 654.176L237.229 637.248L208.281 620.32V654.176Z" fill="white"/>
<path d="M165.421 716.998L175.196 722.641V710.979L165.421 716.998Z" fill="white"/>
<path d="M147.751 759.131L151.887 756.497L147.751 754.24V759.131Z" fill="white"/>
<path d="M217.304 81.2549L218.808 80.1264L217.304 79.374V81.2549Z" fill="white"/>
<path d="M239.109 120.001L241.74 121.506V118.496L239.109 120.001Z" fill="white"/>
<path d="M284.6 203.513L291.367 199.375L284.6 195.613V203.513Z" fill="white"/>
<path d="M303.398 239.25L313.173 244.893V233.607L303.398 239.25Z" fill="white"/>
<path d="M350.392 328.405L366.559 319L350.392 309.596V328.405Z" fill="white"/>
<path d="M365.431 358.875L385.356 370.161V347.214L365.431 358.875Z" fill="white"/>
<path d="M354.528 438.25L390.62 459.316V417.184L354.528 438.25Z" fill="white"/>
<path d="M339.866 505.209L386.86 478.124L339.866 451.039V505.209Z" fill="white"/>
<path d="M275.201 557.498L327.083 587.593V527.78L275.201 557.498Z" fill="white"/>
<path d="M272.194 622.953L316.557 597.373L272.194 571.793V622.953Z" fill="white"/>
<path d="M227.454 677.124L247.756 688.785V665.086L227.454 677.124Z" fill="white"/>
<path d="M214.295 723.017L224.822 716.999L214.295 710.604V723.017Z" fill="white"/>
<path d="M171.061 796.372L172.564 797.125V795.62L171.061 796.372Z" fill="white"/>
<path d="M286.48 120.754L287.607 120.001L286.48 119.249V120.754Z" fill="white"/>
<path d="M308.285 159.876L310.541 161.004V158.371L308.285 159.876Z" fill="white"/>
<path d="M354.152 242.259L359.039 239.25L354.152 236.24V242.259Z" fill="white"/>
<path d="M374.078 279.125L380.845 283.263V274.987L374.078 279.125Z" fill="white"/>
<path d="M420.32 366.399L433.103 358.875L420.32 350.976V366.399Z" fill="white"/>
<path d="M435.734 398.375L453.404 408.531V388.218L435.734 398.375Z" fill="white"/>
<path d="M414.681 455.177L444.006 438.249L414.681 421.321V455.177Z" fill="white"/>
<path d="M347.76 518L394.003 544.709V491.291L347.76 518Z" fill="white"/>
<path d="M339.866 584.96L387.236 557.499L339.866 530.414V584.96Z" fill="white"/>
<path d="M287.607 637.249L320.691 656.434V618.063L287.607 637.249Z" fill="white"/>
<path d="M279.712 689.538L301.142 677.124L279.712 664.71V689.538Z" fill="white"/>
<path d="M237.981 756.498L242.492 759.131V753.864L237.981 756.498Z" fill="white"/>
<path d="M217.68 797.125L218.808 796.372L217.68 795.62V797.125Z" fill="white"/>
<path d="M355.279 160.253L356.407 159.876L355.279 159.124V160.253Z" fill="white"/>
<path d="M377.837 199.375L378.965 200.504V198.623L377.837 199.375Z" fill="white"/>
<path d="M423.328 281.006L426.712 279.125L423.328 277.244V281.006Z" fill="white"/>
<path d="M444.005 319.001L449.269 322.01V315.991L444.005 319.001Z" fill="white"/>
<path d="M425.208 478.125L458.668 497.31V458.939L425.208 478.125Z" fill="white"/>
<path d="M411.297 540.57L450.772 518L411.297 495.053V540.57Z" fill="white"/>
<path d="M353.776 597.374L390.996 618.816V575.932L353.776 597.374Z" fill="white"/>
<path d="M345.88 654.553L375.581 637.249L345.88 619.944V654.553Z" fill="white"/>
<path d="M302.27 716.999L313.549 723.394V710.228L302.27 716.999Z" fill="white"/>
<path d="M285.352 759.131L289.863 756.498L285.352 753.864V759.131Z" fill="white"/>
<path d="M424.456 199.751L424.832 199.375H424.456V199.751Z" fill="white"/>
<path d="M447.014 239.25L447.766 239.626V238.874L447.014 239.25Z" fill="white"/>
<path d="M425.584 557.498L458.292 576.684V538.689L425.584 557.498Z" fill="white"/>
<path d="M414.681 614.678L444.382 597.374L414.681 580.069V614.678Z" fill="white"/>
<path d="M367.686 677.123L384.229 686.528V667.343L367.686 677.123Z" fill="white"/>
<path d="M352.648 722.265L362.047 716.998L352.648 711.355V722.265Z" fill="white"/>
<path d="M309.037 796.372L310.165 797.125V795.996L309.037 796.372Z" fill="white"/>
<path d="M436.11 637.248L453.028 647.029V627.468L436.11 637.248Z" fill="white"/>
<path d="M420.696 683.519L432.351 677.124L420.696 670.353V683.519Z" fill="white"/>
<path d="M376.709 756.497L379.717 758.002V754.992L376.709 756.497Z" fill="white"/>
<path d="M355.655 796.748L356.031 796.372L355.655 795.996V796.748Z" fill="white"/>
<path d="M445.134 716.999L448.518 718.88V714.742L445.134 716.999Z" fill="white"/>
<path d="M424.08 757.25L425.584 756.498L424.08 755.745V757.25Z" fill="white"/>
</g>
</svg>
